<svg width="50" height="50" viewBox="0 0 50 50" fill="none" xmlns="http://www.w3.org/2000/svg">
<rect opacity="0.5" width="50" height="50" rx="10" fill="#01021E"/>
<path d="M27.3747 13.0003C27.2926 12.9977 27.2108 13.0131 27.1352 13.0455C27.0596 13.0779 26.992 13.1264 26.9373 13.1878L19.6874 19.875H14.25C13.9185 19.875 13.6005 20.0067 13.3661 20.2411C13.1317 20.4755 13 20.7935 13 21.125V29.8746C13 30.2061 13.1317 30.524 13.3661 30.7585C13.6005 30.9929 13.9185 31.1246 14.25 31.1246H19.6874L26.9373 37.8118C26.992 37.8731 27.0596 37.9217 27.1352 37.9541C27.2108 37.9865 27.2926 38.0019 27.3747 37.9993C27.5405 37.9993 27.6995 37.9334 27.8167 37.8162C27.9339 37.699 27.9997 37.5401 27.9997 37.3743V13.6253C27.9997 13.4595 27.9339 13.3005 27.8167 13.1833C27.6995 13.0661 27.5405 13.0003 27.3747 13.0003Z" fill="white"/>
<path d="M31.75 36.7494C31.5568 36.7448 31.3669 36.6976 31.1941 36.6112C31.0212 36.5248 30.8696 36.4012 30.75 36.2494C30.6515 36.1181 30.5798 35.9687 30.5391 35.8097C30.4984 35.6507 30.4893 35.4852 30.5126 35.3227C30.5358 35.1602 30.5908 35.0039 30.6744 34.8626C30.758 34.7214 30.8687 34.598 31 34.4995C32.3972 33.4516 33.5312 32.0929 34.3122 30.5308C35.0933 28.9687 35.4999 27.2463 35.4999 25.4999C35.4999 23.7534 35.0933 22.031 34.3122 20.4689C33.5312 18.9068 32.3972 17.5481 31 16.5002C30.8687 16.4017 30.758 16.2783 30.6744 16.1371C30.5908 15.9959 30.5358 15.8395 30.5126 15.677C30.4893 15.5145 30.4984 15.3491 30.5391 15.19C30.5798 15.031 30.6515 14.8816 30.75 14.7503C30.8485 14.619 30.9719 14.5083 31.1131 14.4247C31.2544 14.3411 31.4107 14.2861 31.5732 14.2629C31.7357 14.2397 31.9012 14.2487 32.0602 14.2894C32.2192 14.3301 32.3686 14.4018 32.5 14.5003C34.1935 15.7942 35.5693 17.4576 36.5224 19.3638C37.4756 21.2701 37.9809 23.3687 37.9999 25.4999C37.9809 27.631 37.4756 29.7297 36.5224 31.6359C35.5693 33.5421 34.1935 35.2055 32.5 36.4994C32.2914 36.6761 32.0228 36.7656 31.75 36.7494Z" fill="white"/>
<path d="M30.5 20.1873V30.8119C30.5 30.8775 30.5206 30.9414 30.559 30.9946C30.5973 31.0478 30.6515 31.0876 30.7137 31.1083C30.7759 31.1291 30.8431 31.1297 30.9057 31.1101C30.9683 31.0906 31.0231 31.0518 31.0625 30.9994C32.3207 29.4425 33.0071 27.5013 33.0071 25.4996C33.0071 23.4979 32.3207 21.5567 31.0625 19.9998C31.0231 19.9473 30.9683 19.9086 30.9057 19.889C30.8431 19.8695 30.7759 19.8701 30.7137 19.8909C30.6515 19.9116 30.5973 19.9514 30.559 20.0046C30.5206 20.0578 30.5 20.1217 30.5 20.1873Z" fill="white"/>
</svg>
