<svg width="50" height="50" viewBox="0 0 50 50" fill="none" xmlns="http://www.w3.org/2000/svg">
<rect opacity="0.5" width="50" height="50" rx="10" fill="#01021E"/>
<path d="M29.5 24.375V13.625C29.5 13.4592 29.4342 13.3003 29.3169 13.1831C29.1997 13.0658 29.0408 13 28.875 13C28.7115 13.0084 28.5564 13.0749 28.4375 13.1875L23.1875 18.0625L29.5 24.375Z" fill="white"/>
<path d="M36 34.625L16 14.625C15.7593 14.4445 15.4615 14.3568 15.1614 14.3781C14.8613 14.3995 14.5789 14.5284 14.3661 14.7411C14.1534 14.9539 14.0245 15.2363 14.0031 15.5364C13.9818 15.8365 14.0695 16.1343 14.25 16.375L17.75 19.875H15.75C15.4185 19.875 15.1005 20.0067 14.8661 20.2411C14.6317 20.4755 14.5 20.7935 14.5 21.125V29.875C14.5 30.2065 14.6317 30.5245 14.8661 30.7589C15.1005 30.9933 15.4185 31.125 15.75 31.125H21.1875L28.4375 37.8125C28.5564 37.9251 28.7115 37.9916 28.875 38C29.0408 38 29.1997 37.9342 29.3169 37.8169C29.4342 37.6997 29.5 37.5408 29.5 37.375V31.625L34.25 36.375C34.3612 36.4962 34.4965 36.593 34.6471 36.6593C34.7977 36.7255 34.9605 36.7597 35.125 36.7597C35.2895 36.7597 35.4523 36.7255 35.6029 36.6593C35.7535 36.593 35.8888 36.4962 36 36.375C36.1212 36.2638 36.218 36.1285 36.2843 35.9779C36.3505 35.8273 36.3847 35.6645 36.3847 35.5C36.3847 35.3355 36.3505 35.1727 36.2843 35.0221C36.218 34.8715 36.1212 34.7362 36 34.625Z" fill="white"/>
</svg>
