<svg width="50" height="50" viewBox="0 0 50 50" fill="none" xmlns="http://www.w3.org/2000/svg">
<rect opacity="0.5" width="50" height="50" rx="10" fill="#01021E"/>
<path d="M17.509 31.3716L19.1836 30.8966C20.6949 30.468 21.75 28.9783 21.75 27.2731C21.75 27.2731 21.75 25.2049 25.5 25.2049C29.2499 25.2049 29.25 27.2731 29.25 27.2731C29.25 28.9783 30.3051 30.468 31.8164 30.8966L33.491 31.3716C35.773 32.0189 38 30.1378 38 27.563C38 26.0159 37.6543 24.4662 36.6464 23.379C34.9498 21.5486 31.5085 19 25.5 19C19.4915 19 16.0503 21.5486 14.3536 23.379C13.3457 24.4662 13 26.0159 13 27.563C13 30.1378 15.227 32.0189 17.509 31.3716Z" fill="#F70000"/>
</svg>
