<svg width="59" height="61" viewBox="0 0 59 61" fill="none" xmlns="http://www.w3.org/2000/svg">
<path fill-rule="evenodd" clip-rule="evenodd" d="M43.9128 18.6301C42.0247 16.4491 42.2607 13.1532 44.4417 11.2652C46.6227 9.37719 49.9186 9.6132 51.8066 11.7942C54.0771 14.4228 55.8838 17.4582 57.1208 20.7786C58.3252 24.0175 58.9844 27.4762 58.9844 31.0487C58.9844 39.1949 55.6803 46.5679 50.3418 51.9065C45.0033 57.245 37.6383 60.5491 29.4922 60.5491C21.346 60.5491 13.973 57.245 8.63444 51.9065C3.2959 46.5679 0 39.1949 0 31.0487C0 27.5331 0.634765 24.1314 1.79036 20.9576C2.97851 17.7024 4.73633 14.6995 6.94173 12.079C8.7972 9.87361 12.085 9.58878 14.2904 11.4443C16.4958 13.2997 16.7806 16.5875 14.9251 18.7929C13.5173 20.4693 12.3861 22.398 11.613 24.522C10.8805 26.5321 10.4818 28.7294 10.4818 31.0487C10.4818 36.2978 12.6139 41.0585 16.0482 44.5009C19.4906 47.9433 24.2432 50.0673 29.4922 50.0673C34.7412 50.0673 39.5019 47.9351 42.9362 44.5009C46.3704 41.0666 48.5107 36.3059 48.5107 31.0487C48.5107 28.6806 48.0957 26.4508 47.347 24.4244C46.5495 22.2922 45.3857 20.331 43.9128 18.6301Z" fill="#01021E"/>
<path fill-rule="evenodd" clip-rule="evenodd" d="M34.7337 20.974C34.7337 23.863 32.39 26.2148 29.4928 26.2148C26.6038 26.2148 24.252 23.8711 24.252 20.974V5.3571C24.252 2.4681 26.5957 0.116211 29.4928 0.116211C32.3818 0.116211 34.7337 2.45996 34.7337 5.3571V20.974Z" fill="#01021E"/>
</svg>
