<svg width="40" height="40" viewBox="0 0 40 40" fill="none" xmlns="http://www.w3.org/2000/svg">
<rect x="1.5" y="1.5" width="37" height="37" rx="18.5" fill="white" stroke="url(#paint0_linear_850_45)" stroke-width="3"/>
<path d="M27.4666 19.4526H25.6532C25.6532 20.2682 25.4879 21.0236 25.1892 21.6968L26.5012 23.0433C27.1092 21.976 27.4666 20.7553 27.4666 19.4526ZM23.1839 19.6332C23.1839 19.573 23.1999 19.5128 23.1999 19.4526V12.8842C23.1999 11.0669 21.7652 9.59998 19.9999 9.59998C18.2346 9.59998 16.7999 11.0669 16.7999 12.8842V13.0867L23.1839 19.6332ZM11.7599 10.6947L10.3999 12.0905L16.8106 18.6699V19.4581C16.8106 21.2699 18.2346 22.7423 19.9999 22.7423C20.2399 22.7423 20.4692 22.7094 20.6932 22.6602L22.4639 24.4774C21.7012 24.8387 20.8639 25.0412 19.9999 25.0412C17.0559 25.0412 14.3466 22.7423 14.3466 19.4581H12.5332C12.5332 23.1966 15.4346 26.2838 18.9332 26.8147V30.4H21.0666V26.8092C22.0319 26.6614 22.9492 26.3166 23.7759 25.8185L28.2399 30.4L29.5999 29.0097L11.7599 10.6947Z" fill="#01021E"/>
<defs>
<linearGradient id="paint0_linear_850_45" x1="0" y1="0" x2="34.8316" y2="44.0837" gradientUnits="userSpaceOnUse">
<stop stop-color="#44C0D8"/>
<stop offset="0.205" stop-color="#1878C8"/>
<stop offset="0.4" stop-color="#7366BC"/>
<stop offset="0.6" stop-color="#BB71BF"/>
<stop offset="0.805" stop-color="#F97382"/>
<stop offset="1" stop-color="#F7A95E"/>
</linearGradient>
</defs>
</svg>
