<svg width="61" height="30" viewBox="0 0 61 30" fill="none" xmlns="http://www.w3.org/2000/svg">
<circle cx="10" cy="15" r="9" stroke="#C50000" stroke-width="2"/>
<circle cx="10.0002" cy="15" r="6.66667" fill="#C50000"/>
<path d="M27.54 22C27.14 22 26.94 21.8 26.94 21.4V8.4C26.94 8.10667 27.2067 7.96 27.74 7.96H27.9C28.4333 7.96 28.7 8.10667 28.7 8.4V20.48H34.2C34.4667 20.48 34.6 20.68 34.6 21.08V21.4C34.6 21.8 34.4667 22 34.2 22H27.54ZM37.3075 22.04C36.7742 22.04 36.5075 21.8933 36.5075 21.6V11.94C36.5075 11.6467 36.7742 11.5 37.3075 11.5H37.3875C37.9208 11.5 38.1875 11.6467 38.1875 11.94V21.6C38.1875 21.8933 37.9208 22.04 37.3875 22.04H37.3075ZM37.3475 10.1C37.0275 10.1 36.8008 10.06 36.6675 9.98C36.5342 9.9 36.4675 9.79333 36.4675 9.66V8.46C36.4675 8.32667 36.5342 8.22 36.6675 8.14C36.8008 8.06 37.0275 8.02 37.3475 8.02C37.6675 8.02 37.8942 8.06 38.0275 8.14C38.1608 8.20667 38.2275 8.31333 38.2275 8.46V9.66C38.2275 9.79333 38.1608 9.9 38.0275 9.98C37.8942 10.06 37.6675 10.1 37.3475 10.1ZM44.4805 22.04C44.2805 22.04 44.1071 22.02 43.9605 21.98C43.8138 21.9267 43.7205 21.84 43.6805 21.72L40.4605 12.1C40.4471 12.0733 40.4338 12.0333 40.4205 11.98C40.4071 11.9267 40.4005 11.88 40.4005 11.84C40.4005 11.6133 40.6871 11.5 41.2605 11.5H41.3605C41.5605 11.5 41.7338 11.5267 41.8805 11.58C42.0271 11.62 42.1205 11.7 42.1605 11.82L44.2005 18.2C44.3205 18.6 44.4405 19.0333 44.5605 19.5C44.6805 19.9533 44.7805 20.3533 44.8605 20.7H44.9405C45.0205 20.3533 45.1205 19.94 45.2405 19.46C45.3605 18.9667 45.5138 18.44 45.7005 17.88L47.6405 11.82C47.6805 11.7 47.7738 11.62 47.9205 11.58C48.0671 11.5267 48.2471 11.5 48.4605 11.5H48.5205C49.0138 11.5 49.2605 11.6133 49.2605 11.84C49.2605 11.9067 49.2405 12 49.2005 12.12L45.9805 21.72C45.9405 21.84 45.8471 21.9267 45.7005 21.98C45.5538 22.02 45.3805 22.04 45.1805 22.04H44.4805ZM55.4922 22.12C53.8389 22.12 52.6055 21.6867 51.7922 20.82C50.9922 19.9533 50.5922 18.6267 50.5922 16.84C50.5922 15.6533 50.7655 14.66 51.1122 13.86C51.4722 13.06 51.9989 12.4533 52.6922 12.04C53.3855 11.6267 54.2389 11.42 55.2522 11.42C56.1722 11.42 56.9322 11.62 57.5322 12.02C58.1455 12.42 58.6055 13.0067 58.9122 13.78C59.2189 14.5533 59.3722 15.5067 59.3722 16.64C59.3722 16.72 59.3322 16.8267 59.2522 16.96C59.1855 17.08 59.0989 17.1933 58.9922 17.3C58.8855 17.4067 58.7922 17.46 58.7122 17.46H52.3922C52.4722 18.5667 52.7589 19.38 53.2522 19.9C53.7455 20.42 54.4855 20.68 55.4722 20.68C56.0589 20.68 56.5522 20.6133 56.9522 20.48C57.3655 20.3333 57.6922 20.1933 57.9322 20.06C58.1722 19.9133 58.3255 19.84 58.3922 19.84C58.4855 19.84 58.5855 19.9067 58.6922 20.04C58.7989 20.1733 58.8922 20.32 58.9722 20.48C59.0522 20.64 59.0922 20.76 59.0922 20.84C59.0922 20.96 58.9989 21.0933 58.8122 21.24C58.6255 21.3867 58.3655 21.5267 58.0322 21.66C57.7122 21.7933 57.3322 21.9067 56.8922 22C56.4655 22.08 55.9989 22.12 55.4922 22.12ZM52.3922 16.02H57.5922C57.5922 14.9667 57.3922 14.18 56.9922 13.66C56.5922 13.1267 55.9922 12.86 55.1922 12.86C54.3255 12.86 53.6589 13.1267 53.1922 13.66C52.7255 14.18 52.4589 14.9667 52.3922 16.02Z" fill="white"/>
</svg>
