<svg width="40" height="40" viewBox="0 0 40 40" fill="none" xmlns="http://www.w3.org/2000/svg">
<circle cx="20" cy="20" r="18.5" fill="white" stroke="url(#paint0_linear_850_4)" stroke-width="3"/>
<path d="M16.7002 26.569C15.3748 26.569 14.0494 26.569 12.724 26.569C10.9597 26.5671 9.71901 25.3366 9.7164 23.5803C9.71335 21.2929 9.71335 19.0056 9.7164 16.7185C9.71835 14.9596 10.9562 13.7198 12.7147 13.7167C15.374 13.7134 18.0334 13.7134 20.6928 13.7167C22.4586 13.7185 23.6926 14.9431 23.6978 16.7087C23.7045 18.9958 23.7045 21.283 23.6978 23.5703C23.6941 25.3505 22.4621 26.5677 20.6771 26.5688C19.3513 26.5697 18.0257 26.5697 16.7002 26.569Z" fill="#01021E"/>
<path d="M30.8552 20.1748C30.8552 20.8748 30.8585 21.5749 30.8552 22.2749C30.8476 23.639 29.5255 24.4803 28.2809 23.9152C27.4119 23.5204 26.5462 23.1187 25.6735 22.7319C25.3152 22.5731 25.1601 22.3149 25.1619 21.9306C25.1675 20.744 25.1675 19.5573 25.1619 18.3707C25.1601 17.9846 25.3233 17.7314 25.6789 17.5724C26.5579 17.1796 27.4289 16.7676 28.3061 16.3713C29.5214 15.8212 30.8445 16.6658 30.8548 17.9979C30.8598 18.7235 30.8552 19.4491 30.8552 20.1748Z" fill="#01021E"/>
<defs>
<linearGradient id="paint0_linear_850_4" x1="0" y1="0" x2="40" y2="40" gradientUnits="userSpaceOnUse">
<stop stop-color="#44C0D8"/>
<stop offset="0.195" stop-color="#1878C8"/>
<stop offset="0.4" stop-color="#7366BC"/>
<stop offset="0.61" stop-color="#BB71BF"/>
<stop offset="0.81" stop-color="#F97382"/>
<stop offset="1" stop-color="#F7A95E"/>
</linearGradient>
</defs>
</svg>
