<svg width="110" height="110" viewBox="0 0 110 110" fill="none" xmlns="http://www.w3.org/2000/svg">
<g filter="url(#filter0_d_750_23)">
<rect x="10" width="70" height="70" rx="35" fill="#01021E"/>
<rect x="12.5" y="2.5" width="65" height="65" rx="32.5" stroke="url(#paint0_linear_750_23)" stroke-width="5"/>
</g>
<path d="M47.6246 17.5004C47.5096 17.4967 47.3951 17.5183 47.2893 17.5637C47.1834 17.609 47.0889 17.677 47.0122 17.7629L36.8623 27.125H29.25C28.7858 27.125 28.3407 27.3094 28.0126 27.6376C27.6844 27.9657 27.5 28.4108 27.5 28.8749V41.1244C27.5 41.5886 27.6844 42.0337 28.0126 42.3618C28.3407 42.69 28.7858 42.8744 29.25 42.8744H36.8623L47.0122 52.2365C47.0889 52.3224 47.1834 52.3904 47.2893 52.4357C47.3951 52.4811 47.5096 52.5027 47.6246 52.499C47.8567 52.499 48.0793 52.4068 48.2434 52.2427C48.4074 52.0786 48.4996 51.8561 48.4996 51.624V18.3754C48.4996 18.1433 48.4074 17.9208 48.2434 17.7567C48.0793 17.5926 47.8567 17.5004 47.6246 17.5004Z" fill="white"/>
<path d="M53.75 50.7492C53.4795 50.7428 53.2137 50.6767 52.9717 50.5557C52.7297 50.4347 52.5174 50.2617 52.35 50.0492C52.2121 49.8653 52.1118 49.6561 52.0548 49.4335C51.9977 49.2109 51.9851 48.9792 52.0176 48.7518C52.0501 48.5243 52.1271 48.3054 52.2442 48.1077C52.3613 47.9099 52.5161 47.7372 52.7 47.5993C54.656 46.1323 56.2437 44.23 57.3371 42.0431C58.4306 39.8562 58.9999 37.4448 58.9999 34.9998C58.9999 32.5548 58.4306 30.1433 57.3371 27.9565C56.2437 25.7696 54.656 23.8673 52.7 22.4003C52.5161 22.2624 52.3613 22.0897 52.2442 21.8919C52.1271 21.6942 52.0501 21.4753 52.0176 21.2478C51.9851 21.0203 51.9977 20.7887 52.0548 20.5661C52.1118 20.3434 52.2121 20.1342 52.35 19.9504C52.4879 19.7666 52.6606 19.6117 52.8584 19.4946C53.0561 19.3775 53.275 19.3005 53.5025 19.268C53.73 19.2355 53.9617 19.2481 54.1843 19.3052C54.4069 19.3622 54.6161 19.4625 54.8 19.6004C57.1709 21.4118 59.097 23.7407 60.4314 26.4094C61.7658 29.0781 62.4732 32.0162 62.4998 34.9998C62.4732 37.9834 61.7658 40.9215 60.4314 43.5902C59.097 46.2589 57.1709 48.5878 54.8 50.3992C54.508 50.6465 54.132 50.7719 53.75 50.7492Z" fill="white"/>
<path d="M52 27.5622V42.4366C52 42.5285 52.0289 42.6179 52.0826 42.6924C52.1363 42.7669 52.212 42.8226 52.2991 42.8517C52.3863 42.8807 52.4803 42.8816 52.5679 42.8542C52.6556 42.8268 52.7324 42.7726 52.7875 42.6991C54.549 40.5195 55.51 37.8019 55.51 34.9994C55.51 32.197 54.549 29.4793 52.7875 27.2997C52.7324 27.2263 52.6556 27.172 52.5679 27.1447C52.4803 27.1173 52.3863 27.1182 52.2991 27.1472C52.212 27.1762 52.1363 27.2319 52.0826 27.3064C52.0289 27.3809 52 27.4704 52 27.5622Z" fill="white"/>
<defs>
<filter id="filter0_d_750_23" x="0" y="0" width="110" height="110" filterUnits="userSpaceOnUse" color-interpolation-filters="sRGB">
<feFlood flood-opacity="0" result="BackgroundImageFix"/>
<feColorMatrix in="SourceAlpha" type="matrix" values="0 0 0 0 0 0 0 0 0 0 0 0 0 0 0 0 0 0 127 0" result="hardAlpha"/>
<feOffset dx="10" dy="20"/>
<feGaussianBlur stdDeviation="10"/>
<feComposite in2="hardAlpha" operator="out"/>
<feColorMatrix type="matrix" values="0 0 0 0 0.1875 0 0 0 0 0.1875 0 0 0 0 0.1875 0 0 0 1 0"/>
<feBlend mode="normal" in2="BackgroundImageFix" result="effect1_dropShadow_750_23"/>
<feBlend mode="normal" in="SourceGraphic" in2="effect1_dropShadow_750_23" result="shape"/>
</filter>
<linearGradient id="paint0_linear_750_23" x1="10" y1="0" x2="70.9552" y2="77.1465" gradientUnits="userSpaceOnUse">
<stop stop-color="#44C0D8"/>
<stop offset="0.205" stop-color="#1878C8"/>
<stop offset="0.4" stop-color="#7366BC"/>
<stop offset="0.6" stop-color="#BB71BF"/>
<stop offset="0.805" stop-color="#F97382"/>
<stop offset="1" stop-color="#F7A95E"/>
</linearGradient>
</defs>
</svg>
