<svg width="40" height="40" viewBox="0 0 40 40" fill="none" xmlns="http://www.w3.org/2000/svg">
<circle cx="20" cy="20" r="18.5" stroke="url(#paint0_linear_433_67)" stroke-width="3"/>
<mask id="mask0_433_67" style="mask-type:luminance" maskUnits="userSpaceOnUse" x="5" y="5" width="30" height="30">
<path d="M35 20C35 28.2839 28.2842 35 20 35C11.7158 35 5 28.2842 5 20C5 11.7158 11.7158 5 20 5C28.2842 5 35 11.7161 35 20Z" fill="white"/>
</mask>
<g mask="url(#mask0_433_67)">
<path d="M22.36 27.0428H17.4873V24.4631H22.36V27.0428Z" fill="#ECB79E"/>
<path d="M18.7788 26.4167L17.4873 25.7428V24.4631H22.36V24.554C22.2994 24.6467 22.2367 24.7337 22.1782 24.8104C21.8821 25.1994 21.4894 25.5346 21.0003 25.8158C20.3432 26.1863 19.6059 26.3918 18.8519 26.4146L18.7803 26.4167" fill="#C39985"/>
<path d="M19.9927 10.4185H19.9891C16.8982 10.5058 14.537 11.7761 14.5479 16.1573C14.5552 18.7546 14.7903 19.521 15.5479 22.4849C16.0712 24.5352 18.8573 25.6173 19.9197 25.6879L19.9903 25.6816L20.0606 25.6879C21.1227 25.6173 23.9091 24.5364 24.4327 22.4849C25.1903 19.5207 25.4261 18.7546 25.4327 16.1573C25.444 11.7761 23.0836 10.5058 19.9915 10.4185H19.9927Z" fill="#ECB79E"/>
<path d="M24.8418 17.7134L24.5039 20.3C25.8312 20.8849 26.0391 17.8403 26.0391 17.8403C25.7321 17.0828 24.8418 17.7134 24.8418 17.7134Z" fill="#ECB79E"/>
<path d="M13.7812 18.1516C13.7812 18.1516 13.9885 21.1961 15.3158 20.6116L14.9779 18.0246C14.9779 18.0246 14.0873 17.3928 13.7812 18.1516Z" fill="#ECB79E"/>
<path d="M22.4716 27.3294L29.058 29.0434C29.058 29.0434 31.3056 29.3879 31.8792 31.407L32.8619 35.0679H7.1377L8.12103 31.4073C8.69436 29.3879 10.9419 29.0437 10.9419 29.0437L17.5092 27.3297H22.3595" fill="#ECB79E"/>
<path d="M7.1377 35.0682L8.12103 31.4073C8.69436 29.3879 10.9419 29.0437 10.9419 29.0437L17.5092 27.3297H22.4716L29.058 29.0437C29.058 29.0437 31.3056 29.3882 31.8792 31.4073L32.8619 35.0682H7.1683" fill="white"/>
<path d="M20.3533 27.0428H20.0076H19.9927H19.5715L18.3506 28.9667L19.4427 30.1955H19.9927H20.0076H20.5579L21.6497 28.9667L20.4288 27.0428" fill="#D83633"/>
<path d="M20.64 30.1955H19.4533L18.5879 29.2212L19.4533 30.1955H19.9927H20.0073H20.547L20.6785 30.0476L20.547 30.1955" fill="#BCBEC0"/>
<path d="M20.64 30.1955H19.4549L18.5879 29.2213L19.7349 27.4786C19.6779 28.3798 19.9806 29.3186 20.5952 29.9658C20.6218 29.9934 20.6494 30.0207 20.6785 30.0476L20.5458 30.1955" fill="#A12522"/>
<path d="M24.388 27.8237L24.1017 27.7492L24.3435 27.6092L22.4186 25.8179L22.4102 25.8222L22.4186 25.8179L24.5035 27.754L24.388 27.8237Z" fill="#B66239"/>
<path d="M21.5875 29.5094L21.3672 29.1779L21.4957 29.0331L21.6169 29.1882L24.102 27.7491L24.3884 27.8237L21.5875 29.5094Z" fill="#BCBEC0"/>
<path d="M21.3675 29.1779L19.9814 27.091L21.496 29.0331L21.3675 29.1779Z" fill="#A12522"/>
<path d="M22.4193 25.8179L19.9814 27.091L21.6172 29.1882L24.3442 27.6092L22.4193 25.8179Z" fill="white"/>
<path d="M15.7459 27.7734L15.5498 27.6555L17.4756 25.8671L17.4874 25.8734V27.0428H19.7125H19.3416L19.1598 27.3295H17.4474L15.7459 27.7734Z" fill="#B66239"/>
<path d="M19.7803 27.0428H17.4873V26.4012C17.8382 26.4343 18.1928 26.4528 18.5449 26.4528C18.62 26.4528 18.6949 26.4528 18.77 26.4503L19.8973 27.0428" fill="#B08A78"/>
<path d="M18.5459 26.42C18.1937 26.42 17.8392 26.4013 17.4883 26.3682V25.7434L18.771 26.4173C18.6959 26.4191 18.621 26.42 18.5459 26.42Z" fill="#957566"/>
<path d="M18.3895 29.437L15.6855 27.8103L17.528 27.3294H19.3828L18.3825 28.9055L18.5877 29.1361L18.3895 29.437Z" fill="#BCBEC0"/>
<path d="M18.3821 28.9291L19.3821 27.3534L19.5791 27.0431H19.9806L19.734 27.4176C19.742 27.292 19.7571 27.167 19.7791 27.0431H19.5791L18.3818 28.9294" fill="#A12522"/>
<path d="M18.588 29.16L18.3828 28.9291L19.5801 27.0428H19.7801C19.758 27.1667 19.743 27.2917 19.7349 27.4173L18.588 29.16Z" fill="#7D1611"/>
<path d="M17.5586 25.7367L19.9962 27.0097L18.3608 29.1076L15.6338 27.5279L17.5586 25.7367Z" fill="white"/>
<path d="M15.6645 27.8788L11.0112 29.091C11.0112 29.091 8.78057 29.4313 8.21239 31.4352L7.23633 35.0682H32.7642L31.7881 31.4352C31.2191 29.4313 28.9888 29.0891 28.9888 29.0891L24.116 27.691L19.9815 34.8873L15.6645 27.8788Z" fill="#002331"/>
<path d="M19.4343 30.1955L18.8516 32.7688L19.9813 34.6031L21.0358 32.7679L20.5282 30.1955H19.4343Z" fill="#D83633"/>
<path d="M15.6645 27.8776L13.46 28.4515L14.7036 28.934L13.9357 29.8067L18.3827 35.0682H20.1103L15.6645 27.8776Z" fill="#001221"/>
<path d="M24.1155 27.4046L26.5409 28.1007L25.2976 28.647L26.0649 29.52L21.6182 34.7816H19.8906L24.1155 27.4046Z" fill="#001221"/>
<path d="M14.6202 18.0361L15.1029 20.9452L15.5048 21.2058L15.1029 17.1213L15.792 15.4925L15.959 14.1519L15.979 14.1394C16.4717 12.4161 20.2726 12.6273 20.2726 12.6273C24.7923 12.72 24.1817 15.8606 24.1817 15.8606L24.8457 17.2728L24.4445 21.3546L24.8457 21.0943L25.3287 18.1852C26.059 16.5861 25.6211 12.8728 25.6211 12.8728C25.6211 12.8728 25.0708 11.36 23.899 11.1864C23.899 11.1864 23.3514 8.65247 19.7545 9.11004C19.7545 9.11004 16.409 9.88398 15.3154 7.94883C15.3154 7.94883 15.2729 9.25186 15.979 9.70792C15.979 9.70792 15.2623 9.2858 15.1466 8.89883C15.1466 8.89883 15.1981 9.71034 15.6411 9.99277C15.4208 9.86216 14.6063 9.33974 14.3145 8.58186C14.3145 8.58186 14.0811 9.81368 15.0314 10.4822C15.0314 10.4822 13.7263 9.74338 13.7808 8.89883C13.7808 8.89883 13.3739 10.6231 14.5478 11.0452C14.5478 11.0452 14.1163 11.3619 13.0957 10.1664C13.0957 10.1664 12.8014 12.21 14.2572 12.4185C14.2572 12.4185 13.6839 13.58 14.6208 18.0364L14.6202 18.0361Z" fill="#852A00"/>
<path d="M14.6086 14.037C14.7065 14.0713 14.9674 14.2794 15.1319 14.3528C15.1186 13.8152 14.9625 13.2725 15.0013 12.704C15.2831 12.8155 15.598 12.9903 15.9068 13.0737C15.7183 12.8106 15.5922 12.4797 15.634 12.1419C16.0404 12.0891 16.3686 12.4337 16.7504 12.4146C16.7852 12.1303 16.6677 11.8367 16.6898 11.5434C17.288 11.6376 17.9101 11.8961 18.5122 11.9928C18.4071 11.7546 18.2304 11.511 18.1707 11.2582C18.9268 11.4073 19.6858 11.6455 20.4483 11.7822C20.3837 11.5773 20.1537 11.3967 20.1716 11.157C20.9755 11.0725 21.8613 11.7752 22.6237 11.9567C22.4612 11.856 22.3328 11.7087 22.2552 11.534C22.7571 11.7506 23.3531 12.1861 23.7943 12.514C23.724 12.4549 23.6584 12.3904 23.5983 12.321C23.8225 12.4943 24.0489 12.6731 24.2559 12.8664C24.0207 12.2834 23.2671 12.0964 23.1043 11.48C23.2007 11.6213 23.334 11.7667 23.468 11.851C23.2643 11.3806 22.6925 10.9761 22.3107 10.657C22.138 10.5128 21.9792 10.344 21.7531 10.291C21.9065 10.5979 22.1455 10.8597 22.3398 11.1422C21.9862 10.9076 21.6092 10.4603 21.1937 10.381C21.2368 10.6467 21.5207 10.8985 21.6077 11.1503C21.0686 10.9152 20.5919 10.0858 19.9937 10.0291C20.074 10.1731 20.1974 10.3343 20.2665 10.4746C19.9619 10.2797 19.3877 9.96944 19.0116 10.0288C19.0116 10.2931 19.2159 10.5803 19.3559 10.7952C18.9216 10.6116 18.4846 10.1797 17.9862 10.1706C18.1052 10.3049 18.2746 10.4131 18.3931 10.5491C18.0674 10.5491 17.1349 10.047 16.8565 10.2764C16.6652 10.4346 16.9031 10.6464 16.9277 10.8673C16.7258 10.7694 16.0401 10.3106 15.8007 10.5152C15.5974 10.6885 16.0634 11.0394 16.1119 11.2534C15.7707 11.1867 15.4716 10.9503 15.1055 10.9806C15.1504 11.1473 15.3098 11.2722 15.4058 11.427C15.1825 11.41 14.9862 11.2452 14.754 11.3058C14.7365 11.4293 14.7423 11.555 14.771 11.6764C14.6713 11.6388 14.5474 11.5803 14.4355 11.5419C14.4889 11.6934 14.6092 11.8343 14.6386 11.9913L14.578 12.0031C14.6519 12.1449 14.7171 12.3152 14.7092 12.4776C14.654 12.434 14.5622 12.4231 14.5089 12.3867C14.4689 12.6594 14.548 12.9485 14.5334 13.2255L14.4425 13.2355C14.5113 13.2831 14.5334 13.3491 14.5962 13.3985L14.5431 13.4122C14.6619 13.64 14.7083 14.0543 14.5343 14.2646C14.551 14.1652 14.5968 14.0864 14.6434 14.0028" fill="#963209"/>
</g>
<defs>
<linearGradient id="paint0_linear_433_67" x1="0" y1="0" x2="40" y2="40" gradientUnits="userSpaceOnUse">
<stop stop-color="#44C0D8"/>
<stop offset="0.195" stop-color="#1878C8"/>
<stop offset="0.4" stop-color="#7366BC"/>
<stop offset="0.61" stop-color="#BB71BF"/>
<stop offset="0.81" stop-color="#F97382"/>
<stop offset="1" stop-color="#F7A95E"/>
</linearGradient>
</defs>
</svg>
