<svg width="110" height="110" viewBox="0 0 110 110" fill="none" xmlns="http://www.w3.org/2000/svg">
<g filter="url(#filter0_d_750_29)">
<rect x="10" width="70" height="70" rx="35" fill="#01021E"/>
<rect x="12.5" y="2.5" width="65" height="65" rx="32.5" stroke="url(#paint0_linear_750_29)" stroke-width="5"/>
</g>
<path d="M33.8126 43.5703L36.1571 42.9053C38.2728 42.3052 39.75 40.2196 39.75 37.8324C39.75 37.8324 39.75 34.9368 45 34.9368C50.2498 34.9368 50.25 37.8324 50.25 37.8324C50.25 40.2196 51.7272 42.3052 53.8429 42.9053L56.1874 43.5703C59.3822 44.4764 62.5 41.8429 62.5 38.2382C62.5 36.0722 62.016 33.9028 60.6049 32.3806C58.2297 29.8181 53.4119 26.25 45 26.25C36.5881 26.25 31.7704 29.818 29.3951 32.3806C27.984 33.9028 27.5 36.0722 27.5 38.2382C27.5 41.8429 30.6178 44.4764 33.8126 43.5703Z" fill="#F70000"/>
<defs>
<filter id="filter0_d_750_29" x="0" y="0" width="110" height="110" filterUnits="userSpaceOnUse" color-interpolation-filters="sRGB">
<feFlood flood-opacity="0" result="BackgroundImageFix"/>
<feColorMatrix in="SourceAlpha" type="matrix" values="0 0 0 0 0 0 0 0 0 0 0 0 0 0 0 0 0 0 127 0" result="hardAlpha"/>
<feOffset dx="10" dy="20"/>
<feGaussianBlur stdDeviation="10"/>
<feComposite in2="hardAlpha" operator="out"/>
<feColorMatrix type="matrix" values="0 0 0 0 0.1875 0 0 0 0 0.1875 0 0 0 0 0.1875 0 0 0 1 0"/>
<feBlend mode="normal" in2="BackgroundImageFix" result="effect1_dropShadow_750_29"/>
<feBlend mode="normal" in="SourceGraphic" in2="effect1_dropShadow_750_29" result="shape"/>
</filter>
<linearGradient id="paint0_linear_750_29" x1="10" y1="0" x2="70.9552" y2="77.1465" gradientUnits="userSpaceOnUse">
<stop stop-color="#44C0D8"/>
<stop offset="0.205" stop-color="#1878C8"/>
<stop offset="0.4" stop-color="#7366BC"/>
<stop offset="0.6" stop-color="#BB71BF"/>
<stop offset="0.805" stop-color="#F97382"/>
<stop offset="1" stop-color="#F7A95E"/>
</linearGradient>
</defs>
</svg>
