<svg width="171" height="100" viewBox="0 0 171 100" fill="none" xmlns="http://www.w3.org/2000/svg">
<circle cx="50" cy="50" r="50" fill="white"/>
<path d="M65.1415 42.8364L59.6093 47.3958L50.4948 40.2822L41.3803 47.3958L35.8481 42.8364L50.4948 30.7185L65.1415 42.8364Z" fill="url(#paint0_linear_450_33)"/>
<path d="M87.9894 42.7067L50.4947 12L13 42.7067L24.3133 52.1213L13 61.5147L45.0349 87.8323V59.7565L24.324 42.8344L50.4947 21.4721L76.676 42.8344L55.9651 59.7565V87.8323L88 61.5147L76.676 52.1213L87.9894 42.7067ZM29.9391 56.7808L38.6407 63.6454L38.5194 73.3878L24.0132 61.5424L29.9391 56.7808ZM62.0485 73.3836L61.9293 63.6411L70.6288 56.7765L76.5547 61.5381L62.0485 73.3836Z" fill="url(#paint1_linear_450_33)"/>
<circle cx="87.5" cy="87.5" r="12.5" fill="#646464"/>
<path d="M134.707 88.7071C135.098 88.3166 135.098 87.6834 134.707 87.2929L128.343 80.9289C127.953 80.5384 127.319 80.5384 126.929 80.9289C126.538 81.3195 126.538 81.9526 126.929 82.3431L132.586 88L126.929 93.6569C126.538 94.0474 126.538 94.6805 126.929 95.0711C127.319 95.4616 127.953 95.4616 128.343 95.0711L134.707 88.7071ZM112 89H134V87H112V89Z" fill="#01021E"/>
<circle cx="158.5" cy="87.5" r="12.5" fill="url(#paint2_linear_450_33)"/>
<defs>
<linearGradient id="paint0_linear_450_33" x1="50.4948" y1="30.7185" x2="50.4948" y2="47.3958" gradientUnits="userSpaceOnUse">
<stop stop-color="#44C0D8"/>
<stop offset="0.2" stop-color="#1878C8"/>
<stop offset="0.4" stop-color="#7366BC"/>
<stop offset="0.6" stop-color="#BB71BF"/>
<stop offset="0.8" stop-color="#F97382"/>
<stop offset="1" stop-color="#F7A95E"/>
</linearGradient>
<linearGradient id="paint1_linear_450_33" x1="50.4947" y1="12" x2="50.4947" y2="87.8323" gradientUnits="userSpaceOnUse">
<stop stop-color="#44C0D8"/>
<stop offset="0.2" stop-color="#1878C8"/>
<stop offset="0.4" stop-color="#7366BC"/>
<stop offset="0.6" stop-color="#BB71BF"/>
<stop offset="0.8" stop-color="#F97382"/>
<stop offset="1" stop-color="#F7A95E"/>
</linearGradient>
<linearGradient id="paint2_linear_450_33" x1="146" y1="75" x2="171" y2="100" gradientUnits="userSpaceOnUse">
<stop stop-color="#44C0D8"/>
<stop offset="0.195" stop-color="#1878C8"/>
<stop offset="0.395" stop-color="#7366BC"/>
<stop offset="0.595" stop-color="#BB71BF"/>
<stop offset="0.8" stop-color="#F97382"/>
<stop offset="1" stop-color="#F7A95E"/>
</linearGradient>
</defs>
</svg>
