<svg width="50" height="50" viewBox="0 0 50 50" fill="none" xmlns="http://www.w3.org/2000/svg">
<circle cx="25" cy="25" r="23.5" fill="#01021E" stroke="url(#paint0_linear_776_37)" stroke-width="3"/>
<path d="M26.8477 32.2703C26.5684 32.3865 26.303 32.3682 26.0433 32.3685C22.8588 32.3714 19.674 32.3787 16.4892 32.3685C14.4692 32.3612 13.0126 30.8994 13.0064 28.8839C12.9979 26.1338 12.9979 23.3836 13.0064 20.6334C13.0092 19.1617 13.8511 17.9049 15.1423 17.4012C15.2985 17.3408 15.3874 17.3491 15.4968 17.4905C19.2511 22.3772 23.0081 27.2617 26.768 32.1442C26.7899 32.1739 26.8083 32.2086 26.8477 32.2703Z" fill="white"/>
<path d="M29.538 24.7795C29.538 26.1144 29.538 27.4493 29.538 28.7843C29.538 29.1388 29.527 29.4959 29.4205 29.8345C29.364 30.0145 29.3999 30.132 29.5088 30.2727C31.0043 32.2073 32.497 34.1439 33.9869 36.0825C34.1575 36.3037 34.3026 36.5303 34.2713 36.8243C34.2542 36.9964 34.1841 37.159 34.0708 37.2896C33.9574 37.4202 33.8063 37.5125 33.6384 37.5537C33.3089 37.6391 32.9734 37.505 32.7382 37.1945C32.2928 36.6069 31.8507 36.0166 31.4012 35.4321C25.7265 28.0576 20.0512 20.6832 14.3753 13.3088C14.0682 12.9098 14.1177 12.4232 14.4917 12.1291C14.8658 11.8351 15.3682 11.9041 15.6928 12.3208C16.8201 13.7738 17.9498 15.2251 19.0529 16.6968C19.3066 17.0354 19.5595 17.1774 19.9932 17.1716C22.0051 17.1456 24.0175 17.155 26.0297 17.1612C27.7787 17.1667 29.1231 18.2419 29.4679 19.9003C29.5281 20.1869 29.5367 20.4822 29.5367 20.7755C29.5376 22.1102 29.538 23.4449 29.538 24.7795Z" fill="white"/>
<path d="M37.9977 24.7828C37.9977 25.6221 38.0024 26.4616 37.9977 27.3008C37.9873 28.8837 36.4421 29.8918 34.996 29.251C33.9367 28.7821 32.8888 28.2872 31.8325 27.8093C31.4455 27.635 31.2671 27.3435 31.2676 26.9268C31.2691 25.4909 31.2691 24.0548 31.2676 22.6186C31.2676 22.2002 31.4499 21.9122 31.8349 21.7376C32.8895 21.2576 33.9367 20.7603 34.9944 20.2873C36.4354 19.6429 37.9862 20.652 37.9966 22.2344C38.0026 23.0838 37.9977 23.9332 37.9977 24.7828Z" fill="white"/>
<defs>
<linearGradient id="paint0_linear_776_37" x1="0" y1="0" x2="50" y2="50" gradientUnits="userSpaceOnUse">
<stop stop-color="#44C0D8"/>
<stop offset="0.195" stop-color="#1878C8"/>
<stop offset="0.4" stop-color="#7366BC"/>
<stop offset="0.61" stop-color="#BB71BF"/>
<stop offset="0.81" stop-color="#F97382"/>
<stop offset="1" stop-color="#F7A95E"/>
</linearGradient>
</defs>
</svg>
