<svg width="110" height="110" viewBox="0 0 110 110" fill="none" xmlns="http://www.w3.org/2000/svg">
<g filter="url(#filter0_d_750_32)">
<rect x="10" width="70" height="70" rx="35" fill="#01021E"/>
<rect x="12.5" y="2.5" width="65" height="65" rx="32.5" stroke="url(#paint0_linear_750_32)" stroke-width="5"/>
</g>
<path d="M62.4997 22.2727C62.4997 19.6368 60.363 17.5 57.727 17.5H51.3634C50.4847 17.5 49.7725 18.2123 49.7725 19.0909C49.7725 19.9695 50.4847 20.6818 51.3634 20.6818H57.727C58.6057 20.6818 59.3179 21.3941 59.3179 22.2727V28.6364C59.3179 29.515 60.0302 30.2273 60.9088 30.2273C61.7875 30.2273 62.4997 29.515 62.4997 28.6364V22.2727Z" fill="white"/>
<path d="M62.4997 41.3637C62.4997 40.485 61.7875 39.7728 60.9088 39.7728C60.0302 39.7728 59.3179 40.485 59.3179 41.3637V47.7273C59.3179 48.606 58.6057 49.3182 57.727 49.3182H51.3634C50.4847 49.3182 49.7725 50.0305 49.7725 50.9091C49.7725 51.7878 50.4847 52.5 51.3634 52.5H57.727C60.363 52.5 62.4997 50.3633 62.4997 47.7273V41.3637Z" fill="white"/>
<path d="M32.2727 49.3182H38.6364C39.515 49.3182 40.2273 50.0305 40.2273 50.9091C40.2273 51.7878 39.515 52.5 38.6364 52.5H32.2727C29.6368 52.5 27.5 50.3633 27.5 47.7273V41.3637C27.5 40.485 28.2123 39.7728 29.0909 39.7728C29.9695 39.7728 30.6818 40.485 30.6818 41.3637V47.7273C30.6818 48.606 31.3941 49.3182 32.2727 49.3182Z" fill="white"/>
<path d="M27.5 28.6364C27.5 29.515 28.2123 30.2273 29.0909 30.2273C29.9695 30.2273 30.6818 29.515 30.6818 28.6364V22.2727C30.6818 21.3941 31.3941 20.6818 32.2727 20.6818H38.6364C39.515 20.6818 40.2273 19.9695 40.2273 19.0909C40.2273 18.2123 39.515 17.5 38.6364 17.5H32.2727C29.6368 17.5 27.5 19.6368 27.5 22.2727V28.6364Z" fill="white"/>
<defs>
<filter id="filter0_d_750_32" x="0" y="0" width="110" height="110" filterUnits="userSpaceOnUse" color-interpolation-filters="sRGB">
<feFlood flood-opacity="0" result="BackgroundImageFix"/>
<feColorMatrix in="SourceAlpha" type="matrix" values="0 0 0 0 0 0 0 0 0 0 0 0 0 0 0 0 0 0 127 0" result="hardAlpha"/>
<feOffset dx="10" dy="20"/>
<feGaussianBlur stdDeviation="10"/>
<feComposite in2="hardAlpha" operator="out"/>
<feColorMatrix type="matrix" values="0 0 0 0 0.1875 0 0 0 0 0.1875 0 0 0 0 0.1875 0 0 0 1 0"/>
<feBlend mode="normal" in2="BackgroundImageFix" result="effect1_dropShadow_750_32"/>
<feBlend mode="normal" in="SourceGraphic" in2="effect1_dropShadow_750_32" result="shape"/>
</filter>
<linearGradient id="paint0_linear_750_32" x1="10" y1="0" x2="70.9552" y2="77.1465" gradientUnits="userSpaceOnUse">
<stop stop-color="#44C0D8"/>
<stop offset="0.205" stop-color="#1878C8"/>
<stop offset="0.4" stop-color="#7366BC"/>
<stop offset="0.6" stop-color="#BB71BF"/>
<stop offset="0.805" stop-color="#F97382"/>
<stop offset="1" stop-color="#F7A95E"/>
</linearGradient>
</defs>
</svg>
