<svg width="50" height="50" viewBox="0 0 50 50" fill="none" xmlns="http://www.w3.org/2000/svg">
<circle cx="25" cy="25" r="23.5" fill="#01021E" stroke="url(#paint0_linear_762_3)" stroke-width="3"/>
<path d="M20.8757 33.2114C19.219 33.2114 17.5622 33.2114 15.9055 33.2114C13.7001 33.2089 12.1492 31.6708 12.1459 29.4755C12.1421 26.6162 12.1421 23.7571 12.1459 20.8982C12.1484 18.6996 13.6957 17.1498 15.8938 17.146C19.218 17.1418 22.5422 17.1418 25.8664 17.146C28.0737 17.1482 29.6162 18.679 29.6227 20.886C29.631 23.7449 29.631 26.6039 29.6227 29.463C29.6181 31.6882 28.078 33.2097 25.8468 33.2111C24.1895 33.2122 22.5325 33.2123 20.8757 33.2114Z" fill="white"/>
<path d="M38.5688 25.2186C38.5688 26.0935 38.5729 26.9688 38.5688 27.8437C38.5593 29.5488 36.9067 30.6005 35.3509 29.8941C34.2647 29.4006 33.1825 28.8984 32.0917 28.415C31.6439 28.2165 31.45 27.8938 31.4522 27.4133C31.4592 25.93 31.4592 24.4467 31.4522 22.9635C31.45 22.4808 31.6539 22.1643 32.0985 21.9656C33.1972 21.4745 34.2859 20.9596 35.3824 20.4642C36.9015 19.7765 38.5555 20.8323 38.5683 22.4974C38.5745 23.4045 38.5688 24.3115 38.5688 25.2186Z" fill="white"/>
<defs>
<linearGradient id="paint0_linear_762_3" x1="0" y1="0" x2="50" y2="50" gradientUnits="userSpaceOnUse">
<stop stop-color="#44C0D8"/>
<stop offset="0.195" stop-color="#1878C8"/>
<stop offset="0.4" stop-color="#7366BC"/>
<stop offset="0.61" stop-color="#BB71BF"/>
<stop offset="0.81" stop-color="#F97382"/>
<stop offset="1" stop-color="#F7A95E"/>
</linearGradient>
</defs>
</svg>
