<svg width="40" height="40" viewBox="0 0 40 40" fill="none" xmlns="http://www.w3.org/2000/svg">
<circle cx="20" cy="20" r="18.5" stroke="url(#paint0_linear_398_31)" stroke-width="3"/>
<path d="M21.632 26.0693C21.3974 26.1669 21.1745 26.1516 20.9563 26.1518C18.2813 26.1542 15.6061 26.1604 12.9309 26.1518C11.2341 26.1457 10.0106 24.9178 10.0054 23.2248C9.99821 20.9147 9.99821 18.6046 10.0054 16.2944C10.0078 15.0582 10.7149 14.0025 11.7995 13.5794C11.9308 13.5286 12.0054 13.5356 12.0973 13.6544C15.2509 17.7592 18.4068 21.8622 21.565 25.9635C21.5834 25.9884 21.5989 26.0175 21.632 26.0693Z" fill="#01021E"/>
<path d="M23.8915 19.7772C23.8915 20.8985 23.8915 22.0198 23.8915 23.1412C23.8915 23.439 23.8823 23.7389 23.7928 24.0234C23.7453 24.1746 23.7755 24.2732 23.867 24.3914C25.1232 26.0165 26.377 27.6432 27.6285 29.2717C27.7718 29.4574 27.8937 29.6478 27.8675 29.8948C27.8531 30.0393 27.7942 30.1759 27.699 30.2856C27.6038 30.3953 27.4769 30.4728 27.3358 30.5074C27.059 30.5792 26.7772 30.4665 26.5796 30.2057C26.2055 29.7121 25.8342 29.2163 25.4565 28.7253C20.6898 22.5308 15.9226 16.3363 11.1549 10.1418C10.897 9.80665 10.9385 9.39794 11.2527 9.15092C11.5669 8.90389 11.989 8.96188 12.2616 9.31195C13.2085 10.5324 14.1575 11.7515 15.0841 12.9877C15.2972 13.2722 15.5096 13.3914 15.8739 13.3866C17.5639 13.3647 19.2543 13.3726 20.9445 13.3778C22.4137 13.3824 23.543 14.2856 23.8326 15.6787C23.8832 15.9194 23.8904 16.1675 23.8904 16.4139C23.8911 17.535 23.8915 18.6561 23.8915 19.7772Z" fill="#01021E"/>
<path d="M30.9982 19.78C30.9982 20.485 31.0022 21.1902 30.9982 21.8951C30.9895 23.2247 29.6916 24.0715 28.4768 23.5332C27.587 23.1394 26.7068 22.7237 25.8195 22.3222C25.4944 22.1758 25.3445 21.931 25.345 21.5809C25.3463 20.3748 25.3463 19.1685 25.345 17.962C25.345 17.6106 25.4981 17.3687 25.8215 17.2221C26.7074 16.8188 27.587 16.4011 28.4755 16.0038C29.6859 15.4625 30.9886 16.3101 30.9974 17.6393C31.0024 18.3528 30.9982 19.0663 30.9982 19.78Z" fill="#01021E"/>
<defs>
<linearGradient id="paint0_linear_398_31" x1="0" y1="0" x2="40" y2="40" gradientUnits="userSpaceOnUse">
<stop stop-color="#44C0D8"/>
<stop offset="0.195" stop-color="#1878C8"/>
<stop offset="0.4" stop-color="#7366BC"/>
<stop offset="0.61" stop-color="#BB71BF"/>
<stop offset="0.81" stop-color="#F97382"/>
<stop offset="1" stop-color="#F7A95E"/>
</linearGradient>
</defs>
</svg>
