<svg width="189" height="25" viewBox="0 0 189 25" fill="none" xmlns="http://www.w3.org/2000/svg">
<path d="M2.30387 17.0751C1.9572 17.0751 1.78387 16.9797 1.78387 16.7891V8.33907C1.78387 8.07907 1.91387 7.94907 2.17387 7.94907H4.81287C5.0902 7.94907 5.39353 7.97941 5.72287 8.04007C6.06087 8.10074 6.3772 8.22207 6.67187 8.40407C6.9752 8.57741 7.2222 8.83307 7.41287 9.17107C7.6122 9.50907 7.71187 9.95107 7.71187 10.4971C7.71187 10.9737 7.6382 11.3724 7.49087 11.6931C7.34353 12.0137 7.1572 12.2737 6.93187 12.4731C6.70653 12.6637 6.46387 12.8111 6.20387 12.9151C5.95253 13.0191 5.7142 13.0884 5.48887 13.1231C5.26353 13.1577 5.08153 13.1751 4.94287 13.1751H2.92787V16.7891C2.92787 16.9797 2.75453 17.0751 2.40787 17.0751H2.30387ZM2.92787 12.1871H4.95587C5.08587 12.1871 5.23753 12.1654 5.41087 12.1221C5.59287 12.0787 5.7662 11.9964 5.93087 11.8751C6.1042 11.7537 6.2472 11.5847 6.35987 11.3681C6.47253 11.1427 6.52887 10.8524 6.52887 10.4971C6.52887 10.0637 6.43353 9.73874 6.24287 9.52207C6.06087 9.29674 5.83553 9.14507 5.56687 9.06707C5.2982 8.98041 5.03387 8.93707 4.77387 8.93707H2.92787V12.1871ZM11.57 17.1271C10.5907 17.1271 9.84102 16.8324 9.32102 16.2431C8.80969 15.6537 8.55402 14.8001 8.55402 13.6821C8.55402 12.5554 8.81402 11.6887 9.33402 11.0821C9.85402 10.4754 10.5994 10.1721 11.57 10.1721C12.5234 10.1721 13.2514 10.4754 13.754 11.0821C14.2654 11.6801 14.521 12.5467 14.521 13.6821C14.521 14.8087 14.2697 15.6667 13.767 16.2561C13.273 16.8367 12.5407 17.1271 11.57 17.1271ZM11.531 16.1911C12.1724 16.1911 12.6404 15.9874 12.935 15.5801C13.2384 15.1641 13.39 14.5227 13.39 13.6561C13.39 12.7894 13.2384 12.1481 12.935 11.7321C12.6404 11.3161 12.1724 11.1081 11.531 11.1081C10.8984 11.1081 10.4347 11.3161 10.14 11.7321C9.84536 12.1394 9.69802 12.7807 9.69802 13.6561C9.69802 14.5227 9.84536 15.1641 10.14 15.5801C10.4347 15.9874 10.8984 16.1911 11.531 16.1911ZM17.8174 17.0751C17.6874 17.0751 17.5704 17.0621 17.4664 17.0361C17.3711 17.0014 17.3148 16.9451 17.2974 16.8671L15.5814 10.7051C15.5728 10.6617 15.5598 10.6141 15.5424 10.5621C15.5251 10.5101 15.5164 10.4711 15.5164 10.4451C15.5164 10.3757 15.5598 10.3237 15.6464 10.2891C15.7418 10.2457 15.8978 10.2241 16.1144 10.2241C16.2444 10.2241 16.3571 10.2414 16.4524 10.2761C16.5564 10.3021 16.6171 10.3541 16.6344 10.4321L17.7264 14.5921C17.7698 14.7307 17.8174 14.9517 17.8694 15.2551C17.9214 15.5584 17.9734 15.8357 18.0254 16.0871H18.0774C18.1208 15.8357 18.1684 15.5671 18.2204 15.2811C18.2811 14.9864 18.3331 14.7524 18.3764 14.5791L19.4554 10.4451C19.4728 10.3584 19.5291 10.3021 19.6244 10.2761C19.7198 10.2414 19.8324 10.2241 19.9624 10.2241H20.0534C20.1834 10.2241 20.2961 10.2414 20.3914 10.2761C20.4868 10.3021 20.5431 10.3584 20.5604 10.4451L21.6524 14.5791C21.7478 14.9257 21.8128 15.2117 21.8474 15.4371C21.8908 15.6624 21.9298 15.8877 21.9644 16.1131H21.9904C22.0338 15.8791 22.0771 15.6191 22.1204 15.3331C22.1724 15.0384 22.2244 14.7957 22.2764 14.6051L23.3684 10.4321C23.3858 10.3541 23.4464 10.3021 23.5504 10.2761C23.6544 10.2414 23.7714 10.2241 23.9014 10.2241C24.2481 10.2241 24.4214 10.2977 24.4214 10.4451C24.4214 10.4711 24.4171 10.4971 24.4084 10.5231C24.4084 10.5491 24.3998 10.5837 24.3824 10.6271L22.6404 16.8671C22.6231 16.9451 22.5624 17.0014 22.4584 17.0361C22.3631 17.0621 22.2504 17.0751 22.1204 17.0751H21.7304C21.6004 17.0751 21.4878 17.0621 21.3924 17.0361C21.2971 17.0014 21.2408 16.9451 21.2234 16.8671L20.1834 12.7461C20.1574 12.6334 20.1271 12.4817 20.0924 12.2911C20.0664 12.1004 20.0361 11.9097 20.0014 11.7191H19.9754C19.9408 11.9097 19.9061 12.1004 19.8714 12.2911C19.8454 12.4731 19.8194 12.6204 19.7934 12.7331L18.7274 16.8671C18.7101 16.9451 18.6494 17.0014 18.5454 17.0361C18.4501 17.0621 18.3374 17.0751 18.2074 17.0751H17.8174ZM28.5984 17.1271C27.5237 17.1271 26.7221 16.8454 26.1934 16.2821C25.6734 15.7187 25.4134 14.8564 25.4134 13.6951C25.4134 12.9237 25.5261 12.2781 25.7514 11.7581C25.9854 11.2381 26.3277 10.8437 26.7784 10.5751C27.2291 10.3064 27.7837 10.1721 28.4424 10.1721C29.0404 10.1721 29.5344 10.3021 29.9244 10.5621C30.3231 10.8221 30.6221 11.2034 30.8214 11.7061C31.0207 12.2087 31.1204 12.8284 31.1204 13.5651C31.1204 13.6171 31.0944 13.6864 31.0424 13.7731C30.9991 13.8511 30.9427 13.9247 30.8734 13.9941C30.8041 14.0634 30.7434 14.0981 30.6914 14.0981H26.5834C26.6354 14.8174 26.8217 15.3461 27.1424 15.6841C27.4631 16.0221 27.9441 16.1911 28.5854 16.1911C28.9667 16.1911 29.2874 16.1477 29.5474 16.0611C29.8161 15.9657 30.0284 15.8747 30.1844 15.7881C30.3404 15.6927 30.4401 15.6451 30.4834 15.6451C30.5441 15.6451 30.6091 15.6884 30.6784 15.7751C30.7477 15.8617 30.8084 15.9571 30.8604 16.0611C30.9124 16.1651 30.9384 16.2431 30.9384 16.2951C30.9384 16.3731 30.8777 16.4597 30.7564 16.5551C30.6351 16.6504 30.4661 16.7414 30.2494 16.8281C30.0414 16.9147 29.7944 16.9884 29.5084 17.0491C29.2311 17.1011 28.9277 17.1271 28.5984 17.1271ZM26.5834 13.1621H29.9634C29.9634 12.4774 29.8334 11.9661 29.5734 11.6281C29.3134 11.2814 28.9234 11.1081 28.4034 11.1081C27.8401 11.1081 27.4067 11.2814 27.1034 11.6281C26.8001 11.9661 26.6267 12.4774 26.5834 13.1621ZM33.3962 17.0751C33.0495 17.0751 32.8762 16.9797 32.8762 16.7891V12.2261C32.8762 11.8707 32.8632 11.5761 32.8372 11.3421C32.8112 11.1081 32.7852 10.9304 32.7592 10.8091C32.7332 10.6791 32.7202 10.6054 32.7202 10.5881C32.7202 10.5274 32.7462 10.4797 32.7982 10.4451C32.8589 10.4017 32.9282 10.3714 33.0062 10.3541C33.0842 10.3281 33.1622 10.3107 33.2402 10.3021C33.3182 10.2934 33.3789 10.2891 33.4222 10.2891C33.5262 10.2891 33.6042 10.3367 33.6562 10.4321C33.7169 10.5274 33.7602 10.6444 33.7862 10.7831C33.8209 10.9131 33.8512 11.0344 33.8772 11.1471C34.1025 10.8351 34.3409 10.5967 34.5922 10.4321C34.8522 10.2587 35.1165 10.1721 35.3852 10.1721C35.6365 10.1721 35.8229 10.2154 35.9442 10.3021C36.0742 10.3801 36.1392 10.5057 36.1392 10.6791C36.1392 10.7571 36.1262 10.8524 36.1002 10.9651C36.0829 11.0777 36.0525 11.1774 36.0092 11.2641C35.9745 11.3421 35.9312 11.3811 35.8792 11.3811C35.7925 11.3811 35.7059 11.3594 35.6192 11.3161C35.5412 11.2641 35.3895 11.2381 35.1642 11.2381C34.9389 11.2381 34.7352 11.3031 34.5532 11.4331C34.3712 11.5631 34.2282 11.6974 34.1242 11.8361C34.0202 11.9661 33.9682 12.0311 33.9682 12.0311V16.7891C33.9682 16.9797 33.7949 17.0751 33.4482 17.0751H33.3962ZM40.113 17.1271C39.0384 17.1271 38.2367 16.8454 37.708 16.2821C37.188 15.7187 36.928 14.8564 36.928 13.6951C36.928 12.9237 37.0407 12.2781 37.266 11.7581C37.5 11.2381 37.8424 10.8437 38.293 10.5751C38.7437 10.3064 39.2984 10.1721 39.957 10.1721C40.555 10.1721 41.049 10.3021 41.439 10.5621C41.8377 10.8221 42.1367 11.2034 42.336 11.7061C42.5354 12.2087 42.635 12.8284 42.635 13.5651C42.635 13.6171 42.609 13.6864 42.557 13.7731C42.5137 13.8511 42.4574 13.9247 42.388 13.9941C42.3187 14.0634 42.258 14.0981 42.206 14.0981H38.098C38.15 14.8174 38.3364 15.3461 38.657 15.6841C38.9777 16.0221 39.4587 16.1911 40.1 16.1911C40.4814 16.1911 40.802 16.1477 41.062 16.0611C41.3307 15.9657 41.543 15.8747 41.699 15.7881C41.855 15.6927 41.9547 15.6451 41.998 15.6451C42.0587 15.6451 42.1237 15.6884 42.193 15.7751C42.2624 15.8617 42.323 15.9571 42.375 16.0611C42.427 16.1651 42.453 16.2431 42.453 16.2951C42.453 16.3731 42.3924 16.4597 42.271 16.5551C42.1497 16.6504 41.9807 16.7414 41.764 16.8281C41.556 16.9147 41.309 16.9884 41.023 17.0491C40.7457 17.1011 40.4424 17.1271 40.113 17.1271ZM38.098 13.1621H41.478C41.478 12.4774 41.348 11.9661 41.088 11.6281C40.828 11.2814 40.438 11.1081 39.918 11.1081C39.3547 11.1081 38.9214 11.2814 38.618 11.6281C38.3147 11.9661 38.1414 12.4774 38.098 13.1621ZM46.2919 17.1271C45.7719 17.1271 45.3212 16.9797 44.9399 16.6851C44.5672 16.3817 44.2769 15.9701 44.0689 15.4501C43.8696 14.9214 43.7699 14.3234 43.7699 13.6561C43.7699 12.5207 44.0169 11.6584 44.5109 11.0691C45.0049 10.4711 45.6376 10.1721 46.4089 10.1721C46.8162 10.1721 47.1629 10.2327 47.4489 10.3541C47.7436 10.4754 48.0166 10.6357 48.2679 10.8351V7.55907C48.2679 7.36841 48.4412 7.27307 48.7879 7.27307H48.8399C49.1866 7.27307 49.3599 7.36841 49.3599 7.55907V15.1251C49.3599 15.4804 49.3729 15.7751 49.3989 16.0091C49.4249 16.2431 49.4509 16.4207 49.4769 16.5421C49.5029 16.6634 49.5159 16.7371 49.5159 16.7631C49.5159 16.8237 49.4856 16.8757 49.4249 16.9191C49.3729 16.9537 49.3079 16.9841 49.2299 17.0101C49.1519 17.0274 49.0739 17.0404 48.9959 17.0491C48.9179 17.0577 48.8572 17.0621 48.8139 17.0621C48.7099 17.0621 48.6276 17.0144 48.5669 16.9191C48.5149 16.8151 48.4716 16.6937 48.4369 16.5551C48.4109 16.4077 48.3849 16.2734 48.3589 16.1521C48.0382 16.4814 47.7046 16.7284 47.3579 16.8931C47.0199 17.0491 46.6646 17.1271 46.2919 17.1271ZM46.5129 16.1781C46.7989 16.1781 47.0936 16.1044 47.3969 15.9571C47.7089 15.8011 47.9992 15.5757 48.2679 15.2811V11.7191C48.0339 11.5197 47.7826 11.3724 47.5139 11.2771C47.2452 11.1817 46.9636 11.1341 46.6689 11.1341C46.0882 11.1341 45.6506 11.3464 45.3559 11.7711C45.0612 12.1871 44.9139 12.7807 44.9139 13.5521C44.9139 14.3927 45.0526 15.0427 45.3299 15.5021C45.6072 15.9527 46.0016 16.1781 46.5129 16.1781ZM55.2185 17.0491C54.9585 17.0491 54.8285 16.9191 54.8285 16.6591V8.33907C54.8285 8.07907 54.9585 7.94907 55.2185 7.94907H57.5455C58.5162 7.94907 59.2442 8.16141 59.7295 8.58607C60.2149 9.01074 60.4575 9.56541 60.4575 10.2501C60.4575 10.5361 60.3882 10.8177 60.2495 11.0951C60.1195 11.3724 59.9462 11.6151 59.7295 11.8231C59.5129 12.0224 59.2789 12.1567 59.0275 12.2261V12.2781C59.0275 12.2781 59.0882 12.2997 59.2095 12.3431C59.3309 12.3777 59.4825 12.4471 59.6645 12.5511C59.8465 12.6464 60.0285 12.7764 60.2105 12.9411C60.3925 13.1057 60.5442 13.3094 60.6655 13.5521C60.7869 13.7947 60.8475 14.0894 60.8475 14.4361C60.8475 15.3374 60.5529 16.0004 59.9635 16.4251C59.3829 16.8411 58.5465 17.0491 57.4545 17.0491H55.2185ZM55.9725 16.0611H57.8705C58.4512 16.0611 58.8932 15.9094 59.1965 15.6061C59.5085 15.3027 59.6645 14.8954 59.6645 14.3841C59.6645 13.9074 59.4955 13.5347 59.1575 13.2661C58.8195 12.9974 58.3169 12.8631 57.6495 12.8631H55.9725V16.0611ZM55.9725 11.8751H57.4805C58.0092 11.8751 58.4382 11.7277 58.7675 11.4331C59.1055 11.1384 59.2745 10.7787 59.2745 10.3541C59.2745 9.86874 59.1272 9.51341 58.8325 9.28807C58.5465 9.05407 58.0785 8.93707 57.4285 8.93707H55.9725V11.8751ZM63.0936 19.7531C62.8076 19.7531 62.6646 19.6837 62.6646 19.5451C62.6646 19.5277 62.6646 19.5061 62.6646 19.4801C62.6733 19.4627 62.6949 19.4107 62.7296 19.3241L63.9906 16.2691V17.1141L61.5466 10.6141C61.5379 10.5967 61.5293 10.5707 61.5206 10.5361C61.5119 10.5014 61.5076 10.4711 61.5076 10.4451C61.5076 10.2977 61.6939 10.2241 62.0666 10.2241H62.1706C62.3006 10.2241 62.4133 10.2414 62.5086 10.2761C62.6039 10.3021 62.6646 10.3541 62.6906 10.4321L64.0166 13.9551C64.0946 14.1717 64.1683 14.3927 64.2376 14.6181C64.3069 14.8434 64.3719 15.0601 64.4326 15.2681H64.4586C64.5279 15.0687 64.5973 14.8521 64.6666 14.6181C64.7359 14.3754 64.8096 14.1544 64.8876 13.9551L66.1876 10.4321C66.2136 10.3541 66.2743 10.3021 66.3696 10.2761C66.4649 10.2414 66.5819 10.2241 66.7206 10.2241H66.7596C67.1063 10.2241 67.2796 10.2977 67.2796 10.4451C67.2796 10.4884 67.2666 10.5491 67.2406 10.6271L63.8996 19.4801C63.8649 19.5754 63.7913 19.6447 63.6786 19.6881C63.5746 19.7314 63.4446 19.7531 63.2886 19.7531H63.0936Z" fill="#646464"/>
<path d="M87.4385 9.23705L85.6937 10.7202L82.8191 8.40617L79.9445 10.7202L78.1997 9.23705L82.8191 5.29523L87.4385 9.23705Z" fill="url(#paint0_linear_426_7)"/>
<path d="M94.6444 9.98854L82.819 0L70.9937 9.98854L74.5617 13.051L70.9937 16.1066L81.0971 24.6674V15.5347L74.5651 10.0301L82.819 3.08117L91.0763 10.0301L84.5443 15.5347V24.6674L94.6477 16.1066L91.0763 13.051L94.6444 9.98854ZM76.336 14.5667L79.0804 16.7997L79.0421 19.9688L74.4671 16.1156L76.336 14.5667ZM86.4629 19.9674L86.4254 16.7983L89.1691 14.5653L91.038 16.1142L86.4629 19.9674Z" fill="url(#paint1_linear_426_7)"/>
<path d="M101.591 17.1271C101.036 17.1271 100.542 17.0621 100.109 16.9321C99.6752 16.8021 99.3545 16.6591 99.1465 16.5031C98.9819 16.3817 98.8995 16.2734 98.8995 16.1781C98.8995 16.1087 98.9255 16.0177 98.9775 15.9051C99.0382 15.7924 99.1032 15.6927 99.1725 15.6061C99.2505 15.5194 99.3112 15.4761 99.3545 15.4761C99.3805 15.4761 99.4152 15.4891 99.4585 15.5151C99.5105 15.5324 99.5669 15.5627 99.6275 15.6061C99.8009 15.7014 100.052 15.8141 100.382 15.9441C100.711 16.0741 101.114 16.1391 101.591 16.1391C101.92 16.1391 102.21 16.0784 102.462 15.9571C102.722 15.8271 102.925 15.6451 103.073 15.4111C103.22 15.1771 103.294 14.9084 103.294 14.6051C103.294 14.2584 103.198 13.9811 103.008 13.7731C102.826 13.5564 102.583 13.3787 102.28 13.2401C101.985 13.1014 101.669 12.9671 101.331 12.8371C101.053 12.7331 100.78 12.6204 100.512 12.4991C100.243 12.3691 100 12.2131 99.7835 12.0311C99.5669 11.8491 99.3935 11.6194 99.2635 11.3421C99.1335 11.0561 99.0685 10.7007 99.0685 10.2761C99.0685 9.80807 99.1855 9.39207 99.4195 9.02807C99.6622 8.66407 100 8.38241 100.434 8.18307C100.867 7.97507 101.374 7.87107 101.955 7.87107C102.137 7.87107 102.34 7.88841 102.566 7.92307C102.8 7.95774 103.025 8.00974 103.242 8.07907C103.467 8.1484 103.649 8.23074 103.788 8.32607C103.961 8.43007 104.048 8.54274 104.048 8.66407C104.048 8.72474 104.022 8.81141 103.97 8.92407C103.918 9.03674 103.857 9.1364 103.788 9.22307C103.727 9.30974 103.675 9.35307 103.632 9.35307C103.597 9.35307 103.549 9.34007 103.489 9.31407C103.437 9.27941 103.367 9.24041 103.281 9.19707C103.142 9.12774 102.964 9.05407 102.748 8.97607C102.531 8.89807 102.258 8.85907 101.929 8.85907C101.608 8.85907 101.318 8.9154 101.058 9.02807C100.806 9.14074 100.607 9.30541 100.46 9.52207C100.321 9.73874 100.252 10.0074 100.252 10.3281C100.252 10.6401 100.334 10.8871 100.499 11.0691C100.663 11.2511 100.88 11.4027 101.149 11.5241C101.417 11.6367 101.708 11.7537 102.02 11.8751C102.306 11.9877 102.592 12.1134 102.878 12.2521C103.172 12.3821 103.441 12.5467 103.684 12.7461C103.926 12.9454 104.117 13.1967 104.256 13.5001C104.403 13.7947 104.477 14.1631 104.477 14.6051C104.477 14.9951 104.407 15.3461 104.269 15.6581C104.139 15.9701 103.944 16.2344 103.684 16.4511C103.432 16.6677 103.129 16.8367 102.774 16.9581C102.427 17.0707 102.033 17.1271 101.591 17.1271ZM106.635 17.0751C106.288 17.0751 106.115 16.9797 106.115 16.7891V7.55907C106.115 7.36841 106.288 7.27307 106.635 7.27307H106.687C107.033 7.27307 107.207 7.36841 107.207 7.55907V11.0691C107.432 10.8437 107.714 10.6401 108.052 10.4581C108.398 10.2674 108.78 10.1721 109.196 10.1721C109.404 10.1721 109.625 10.2024 109.859 10.2631C110.101 10.3151 110.327 10.4147 110.535 10.5621C110.751 10.7094 110.925 10.9217 111.055 11.1991C111.193 11.4764 111.263 11.8361 111.263 12.2781V16.7891C111.263 16.9797 111.089 17.0751 110.743 17.0751H110.691C110.344 17.0751 110.171 16.9797 110.171 16.7891V12.3821C110.171 12.0007 110.058 11.6974 109.833 11.4721C109.616 11.2381 109.287 11.1211 108.845 11.1211C108.602 11.1211 108.381 11.1687 108.182 11.2641C107.982 11.3507 107.809 11.4547 107.662 11.5761C107.514 11.6974 107.402 11.8057 107.324 11.9011C107.246 11.9877 107.207 12.0311 107.207 12.0311V16.7891C107.207 16.9797 107.033 17.0751 106.687 17.0751H106.635ZM116 17.1271C115.021 17.1271 114.271 16.8324 113.751 16.2431C113.24 15.6537 112.984 14.8001 112.984 13.6821C112.984 12.5554 113.244 11.6887 113.764 11.0821C114.284 10.4754 115.029 10.1721 116 10.1721C116.953 10.1721 117.681 10.4754 118.184 11.0821C118.695 11.6801 118.951 12.5467 118.951 13.6821C118.951 14.8087 118.7 15.6667 118.197 16.2561C117.703 16.8367 116.971 17.1271 116 17.1271ZM115.961 16.1911C116.602 16.1911 117.07 15.9874 117.365 15.5801C117.668 15.1641 117.82 14.5227 117.82 13.6561C117.82 12.7894 117.668 12.1481 117.365 11.7321C117.07 11.3161 116.602 11.1081 115.961 11.1081C115.328 11.1081 114.865 11.3161 114.57 11.7321C114.275 12.1394 114.128 12.7807 114.128 13.6561C114.128 14.5227 114.275 15.1641 114.57 15.5801C114.865 15.9874 115.328 16.1911 115.961 16.1911ZM121.308 19.7531C120.962 19.7531 120.788 19.6577 120.788 19.4671V12.2261C120.788 11.8707 120.775 11.5761 120.749 11.3421C120.723 11.1081 120.697 10.9304 120.671 10.8091C120.645 10.6791 120.632 10.6054 120.632 10.5881C120.632 10.5274 120.658 10.4797 120.71 10.4451C120.771 10.4017 120.84 10.3714 120.918 10.3541C120.996 10.3281 121.074 10.3107 121.152 10.3021C121.23 10.2934 121.291 10.2891 121.334 10.2891C121.438 10.2891 121.516 10.3367 121.568 10.4321C121.629 10.5274 121.672 10.6444 121.698 10.7831C121.733 10.9131 121.763 11.0344 121.789 11.1471C122.11 10.8177 122.439 10.5751 122.777 10.4191C123.124 10.2544 123.484 10.1721 123.856 10.1721C124.394 10.1721 124.849 10.3237 125.221 10.6271C125.603 10.9304 125.889 11.3464 126.079 11.8751C126.279 12.3951 126.378 12.9887 126.378 13.6561C126.378 14.7827 126.131 15.6451 125.637 16.2431C125.143 16.8324 124.511 17.1271 123.739 17.1271C123.341 17.1271 122.994 17.0664 122.699 16.9451C122.405 16.8151 122.132 16.6547 121.88 16.4641V19.4671C121.88 19.6577 121.707 19.7531 121.36 19.7531H121.308ZM123.492 16.1651C124.073 16.1651 124.506 15.9571 124.792 15.5411C125.087 15.1164 125.234 14.5184 125.234 13.7471C125.234 12.9064 125.096 12.2607 124.818 11.8101C124.541 11.3507 124.147 11.1211 123.635 11.1211C123.349 11.1211 123.05 11.1991 122.738 11.3551C122.435 11.5024 122.149 11.7234 121.88 12.0181V15.5801C122.114 15.7707 122.366 15.9181 122.634 16.0221C122.912 16.1174 123.198 16.1651 123.492 16.1651ZM130.961 17.0751C130.588 17.0751 130.402 17.0014 130.402 16.8541C130.402 16.8281 130.406 16.8021 130.415 16.7761C130.423 16.7414 130.432 16.7067 130.441 16.6721L133.522 8.13107C133.565 7.99241 133.738 7.92307 134.042 7.92307H134.419C134.722 7.92307 134.895 7.99241 134.939 8.13107L138.02 16.6851C138.046 16.7457 138.059 16.8021 138.059 16.8541C138.059 17.0014 137.872 17.0751 137.5 17.0751H137.396C137.266 17.0751 137.153 17.0621 137.058 17.0361C136.962 17.0014 136.902 16.9451 136.876 16.8671L136.109 14.7351H132.287L131.546 16.8671C131.52 16.9451 131.459 17.0014 131.364 17.0361C131.268 17.0621 131.156 17.0751 131.026 17.0751H130.961ZM132.651 13.7471H135.758L134.393 9.87307C134.358 9.75174 134.328 9.62607 134.302 9.49607C134.276 9.36607 134.254 9.24041 134.237 9.11907H134.211C134.185 9.24041 134.154 9.36607 134.12 9.49607C134.094 9.62607 134.059 9.75174 134.016 9.87307L132.651 13.7471ZM139.999 17.0751C139.653 17.0751 139.479 16.9797 139.479 16.7891V8.33907C139.479 8.07907 139.609 7.94907 139.869 7.94907H142.053C143.067 7.94907 143.843 8.12674 144.38 8.48207C144.918 8.83741 145.186 9.42674 145.186 10.2501C145.186 10.8047 145.052 11.2641 144.783 11.6281C144.515 11.9921 144.151 12.2651 143.691 12.4471V12.4991C143.969 12.5857 144.19 12.7721 144.354 13.0581C144.528 13.3354 144.697 13.6907 144.861 14.1241L145.875 16.6851C145.901 16.7631 145.914 16.8237 145.914 16.8671C145.914 17.0057 145.732 17.0751 145.368 17.0751H145.238C145.108 17.0751 144.996 17.0577 144.9 17.0231C144.805 16.9797 144.744 16.9277 144.718 16.8671L143.73 14.3191C143.54 13.8077 143.297 13.4697 143.002 13.3051C142.708 13.1317 142.305 13.0451 141.793 13.0451H140.623V16.7891C140.623 16.9797 140.45 17.0751 140.103 17.0751H139.999ZM140.623 12.0571H142.339C142.651 12.0571 142.933 11.9834 143.184 11.8361C143.436 11.6887 143.635 11.4937 143.782 11.2511C143.93 11.0084 144.003 10.7441 144.003 10.4581C144.003 9.92941 143.843 9.54374 143.522 9.30107C143.202 9.05841 142.777 8.93707 142.248 8.93707H140.623V12.0571ZM154.021 17.1271C152.721 17.1271 151.729 16.7327 151.044 15.9441C150.359 15.1467 150.017 13.9897 150.017 12.4731C150.017 10.9477 150.359 9.79941 151.044 9.02807C151.729 8.25674 152.721 7.87107 154.021 7.87107C155.33 7.87107 156.326 8.25674 157.011 9.02807C157.696 9.79941 158.038 10.9477 158.038 12.4731C158.038 13.9897 157.696 15.1467 157.011 15.9441C156.326 16.7327 155.33 17.1271 154.021 17.1271ZM154.021 16.1391C154.94 16.1391 155.642 15.8271 156.127 15.2031C156.612 14.5791 156.855 13.6691 156.855 12.4731C156.855 11.2771 156.612 10.3757 156.127 9.76907C155.642 9.16241 154.94 8.85907 154.021 8.85907C153.102 8.85907 152.4 9.16241 151.915 9.76907C151.438 10.3757 151.2 11.2771 151.2 12.4731C151.2 13.6691 151.438 14.5791 151.915 15.2031C152.4 15.8271 153.102 16.1391 154.021 16.1391ZM160.423 17.0751C160.076 17.0751 159.903 16.9797 159.903 16.7891V12.2261C159.903 11.8707 159.89 11.5761 159.864 11.3421C159.838 11.1081 159.812 10.9304 159.786 10.8091C159.76 10.6791 159.747 10.6054 159.747 10.5881C159.747 10.5274 159.773 10.4797 159.825 10.4451C159.885 10.4017 159.955 10.3714 160.033 10.3541C160.111 10.3281 160.189 10.3107 160.267 10.3021C160.345 10.2934 160.405 10.2891 160.449 10.2891C160.553 10.2891 160.631 10.3367 160.683 10.4321C160.743 10.5274 160.787 10.6444 160.813 10.7831C160.847 10.9131 160.878 11.0344 160.904 11.1471C161.181 10.8437 161.497 10.6054 161.853 10.4321C162.208 10.2587 162.568 10.1721 162.932 10.1721C163.599 10.1721 164.119 10.3584 164.492 10.7311C164.864 11.1037 165.051 11.6194 165.051 12.2781V16.7891C165.051 16.9797 164.877 17.0751 164.531 17.0751H164.479C164.132 17.0751 163.959 16.9797 163.959 16.7891V12.3821C163.959 11.9834 163.842 11.6757 163.608 11.4591C163.382 11.2337 163.057 11.1211 162.633 11.1211C162.338 11.1211 162.043 11.2034 161.749 11.3681C161.463 11.5327 161.211 11.7537 160.995 12.0311V16.7891C160.995 16.9797 160.821 17.0751 160.475 17.0751H160.423ZM168.764 17.1271C168.599 17.1271 168.422 17.1011 168.231 17.0491C168.04 17.0057 167.858 16.9234 167.685 16.8021C167.512 16.6721 167.369 16.4901 167.256 16.2561C167.143 16.0134 167.087 15.7057 167.087 15.3331V7.55907C167.087 7.36841 167.26 7.27307 167.607 7.27307H167.659C168.006 7.27307 168.179 7.36841 168.179 7.55907V15.2291C168.179 15.6191 168.248 15.8791 168.387 16.0091C168.526 16.1304 168.69 16.1911 168.881 16.1911C169.072 16.1911 169.197 16.1824 169.258 16.1651C169.319 16.1391 169.379 16.1261 169.44 16.1261C169.501 16.1261 169.548 16.1694 169.583 16.2561C169.626 16.3427 169.657 16.4381 169.674 16.5421C169.7 16.6374 169.713 16.7024 169.713 16.7371C169.713 16.8497 169.657 16.9364 169.544 16.9971C169.44 17.0491 169.314 17.0837 169.167 17.1011C169.02 17.1184 168.885 17.1271 168.764 17.1271ZM171.583 17.0751C171.237 17.0751 171.063 16.9797 171.063 16.7891V10.5101C171.063 10.3194 171.237 10.2241 171.583 10.2241H171.635C171.982 10.2241 172.155 10.3194 172.155 10.5101V16.7891C172.155 16.9797 171.982 17.0751 171.635 17.0751H171.583ZM171.609 9.31407C171.401 9.31407 171.254 9.28807 171.167 9.23607C171.081 9.18407 171.037 9.11474 171.037 9.02807V8.24807C171.037 8.16141 171.081 8.09207 171.167 8.04007C171.254 7.98807 171.401 7.96207 171.609 7.96207C171.817 7.96207 171.965 7.98807 172.051 8.04007C172.138 8.08341 172.181 8.15274 172.181 8.24807V9.02807C172.181 9.11474 172.138 9.18407 172.051 9.23607C171.965 9.28807 171.817 9.31407 171.609 9.31407ZM174.959 17.0751C174.612 17.0751 174.439 16.9797 174.439 16.7891V12.2261C174.439 11.8707 174.426 11.5761 174.4 11.3421C174.374 11.1081 174.348 10.9304 174.322 10.8091C174.296 10.6791 174.283 10.6054 174.283 10.5881C174.283 10.5274 174.309 10.4797 174.361 10.4451C174.422 10.4017 174.491 10.3714 174.569 10.3541C174.647 10.3281 174.725 10.3107 174.803 10.3021C174.881 10.2934 174.942 10.2891 174.985 10.2891C175.089 10.2891 175.167 10.3367 175.219 10.4321C175.28 10.5274 175.323 10.6444 175.349 10.7831C175.384 10.9131 175.414 11.0344 175.44 11.1471C175.717 10.8437 176.034 10.6054 176.389 10.4321C176.744 10.2587 177.104 10.1721 177.468 10.1721C178.135 10.1721 178.655 10.3584 179.028 10.7311C179.401 11.1037 179.587 11.6194 179.587 12.2781V16.7891C179.587 16.9797 179.414 17.0751 179.067 17.0751H179.015C178.668 17.0751 178.495 16.9797 178.495 16.7891V12.3821C178.495 11.9834 178.378 11.6757 178.144 11.4591C177.919 11.2337 177.594 11.1211 177.169 11.1211C176.874 11.1211 176.58 11.2034 176.285 11.3681C175.999 11.5327 175.748 11.7537 175.531 12.0311V16.7891C175.531 16.9797 175.358 17.0751 175.011 17.0751H174.959ZM184.457 17.1271C183.383 17.1271 182.581 16.8454 182.052 16.2821C181.532 15.7187 181.272 14.8564 181.272 13.6951C181.272 12.9237 181.385 12.2781 181.61 11.7581C181.844 11.2381 182.187 10.8437 182.637 10.5751C183.088 10.3064 183.643 10.1721 184.301 10.1721C184.899 10.1721 185.393 10.3021 185.783 10.5621C186.182 10.8221 186.481 11.2034 186.68 11.7061C186.88 12.2087 186.979 12.8284 186.979 13.5651C186.979 13.6171 186.953 13.6864 186.901 13.7731C186.858 13.8511 186.802 13.9247 186.732 13.9941C186.663 14.0634 186.602 14.0981 186.55 14.0981H182.442C182.494 14.8174 182.681 15.3461 183.001 15.6841C183.322 16.0221 183.803 16.1911 184.444 16.1911C184.826 16.1911 185.146 16.1477 185.406 16.0611C185.675 15.9657 185.887 15.8747 186.043 15.7881C186.199 15.6927 186.299 15.6451 186.342 15.6451C186.403 15.6451 186.468 15.6884 186.537 15.7751C186.607 15.8617 186.667 15.9571 186.719 16.0611C186.771 16.1651 186.797 16.2431 186.797 16.2951C186.797 16.3731 186.737 16.4597 186.615 16.5551C186.494 16.6504 186.325 16.7414 186.108 16.8281C185.9 16.9147 185.653 16.9884 185.367 17.0491C185.09 17.1011 184.787 17.1271 184.457 17.1271ZM182.442 13.1621H185.822C185.822 12.4774 185.692 11.9661 185.432 11.6281C185.172 11.2814 184.782 11.1081 184.262 11.1081C183.699 11.1081 183.266 11.2814 182.962 11.6281C182.659 11.9661 182.486 12.4774 182.442 13.1621Z" fill="#646464"/>
<defs>
<linearGradient id="paint0_linear_426_7" x1="82.8191" y1="5.29523" x2="82.8191" y2="10.7202" gradientUnits="userSpaceOnUse">
<stop stop-color="#44C0D8"/>
<stop offset="0.2" stop-color="#1878C8"/>
<stop offset="0.4" stop-color="#7366BC"/>
<stop offset="0.6" stop-color="#BB71BF"/>
<stop offset="0.8" stop-color="#F97382"/>
<stop offset="1" stop-color="#F7A95E"/>
</linearGradient>
<linearGradient id="paint1_linear_426_7" x1="82.819" y1="0" x2="82.819" y2="24.6674" gradientUnits="userSpaceOnUse">
<stop stop-color="#44C0D8"/>
<stop offset="0.2" stop-color="#1878C8"/>
<stop offset="0.4" stop-color="#7366BC"/>
<stop offset="0.6" stop-color="#BB71BF"/>
<stop offset="0.8" stop-color="#F97382"/>
<stop offset="1" stop-color="#F7A95E"/>
</linearGradient>
</defs>
</svg>
