<svg width="50" height="50" viewBox="0 0 50 50" fill="none" xmlns="http://www.w3.org/2000/svg">
<rect opacity="0.5" width="50" height="50" rx="10" fill="#01021E"/>
<path d="M24.9375 28.8397C27.5234 28.8397 29.6094 26.7281 29.6094 24.1298L29.625 14.7099C29.625 12.1038 27.5312 10 24.9375 10C22.3516 10 20.25 12.1038 20.25 14.7099V24.1298C20.25 26.7281 22.3516 28.8397 24.9375 28.8397ZM33.2187 24.1298C33.2187 28.8397 29.2578 32.1367 24.9375 32.1367C20.625 32.1367 16.6562 28.8397 16.6562 24.1298H14C14 29.4913 18.25 33.9186 23.375 34.68V39.8295H26.5V34.68C31.625 33.9186 35.875 29.4913 35.875 24.1298H33.2187Z" fill="white"/>
</svg>
