<svg width="50" height="50" viewBox="0 0 50 50" fill="none" xmlns="http://www.w3.org/2000/svg">
<rect opacity="0.5" width="50" height="50" rx="10" fill="#01021E"/>
<path d="M34.3333 24.3158H32.0667C32.0667 25.3353 31.86 26.2795 31.4867 27.1211L33.1267 28.8042C33.8867 27.47 34.3333 25.9442 34.3333 24.3158ZM28.98 24.5416C28.98 24.4663 29 24.3911 29 24.3158V16.1053C29 13.8337 27.2067 12 25 12C22.7933 12 21 13.8337 21 16.1053V16.3584L28.98 24.5416ZM14.7 13.3684L13 15.1132L21.0133 23.3374V24.3226C21.0133 26.5874 22.7933 28.4279 25 28.4279C25.3 28.4279 25.5867 28.3868 25.8667 28.3253L28.08 30.5968C27.1267 31.0484 26.08 31.3016 25 31.3016C21.32 31.3016 17.9333 28.4279 17.9333 24.3226H15.6667C15.6667 28.9958 19.2933 32.8547 23.6667 33.5184V38H26.3333V33.5116C27.54 33.3268 28.6867 32.8958 29.72 32.2732L35.3 38L37 36.2621L14.7 13.3684Z" fill="white"/>
</svg>
