<svg width="68" height="71" viewBox="0 0 68 71" fill="none" xmlns="http://www.w3.org/2000/svg">
<path d="M8.04835 0.3741C5.62515 1.36134 4.81741 3.38068 2.03521 15.5416C-0.522619 26.7601 -0.343122 29.8116 3.06732 30.6642C3.83018 30.8886 4.23405 31.4719 4.68279 33.0425C5.49052 36.1837 8.81121 42.9597 11.6832 47.3574L14.241 51.2614L12.446 55.3899C10.9203 58.9349 10.7408 59.6529 11.2793 60.1017C12.087 60.7299 11.8178 61.044 14.1512 56.5566C15.1834 54.5373 16.1706 52.8769 16.3501 52.8769C16.4847 52.8769 17.6514 53.2808 18.863 53.7295C20.3439 54.3129 21.1516 54.8514 21.2414 55.4347C21.3311 55.9284 20.9721 59.4286 20.4785 63.198C19.9849 67.0123 19.7156 70.2881 19.8054 70.4676C19.94 70.6471 20.3888 70.8266 20.8824 70.8266C21.5555 70.8266 21.8696 69.7496 23.171 62.9736L24.6518 55.1206H28.0622C29.947 55.1206 33.6266 54.986 36.2294 54.8514L40.9411 54.5373L41.2104 55.9732C41.4348 56.9605 41.7489 57.3643 42.422 57.3643C43.14 57.3643 43.3195 57.0502 43.3195 55.8386V54.3578L46.6402 54.0885C48.48 53.909 50.2301 53.7295 50.5442 53.6847C51.0827 53.55 51.6212 54.8065 54.7624 63.0634C55.9291 66.2046 56.9164 67.1918 57.4997 65.7558C57.6343 65.3968 57.0061 62.6146 56.1086 59.4734C55.256 56.3771 54.538 53.5949 54.538 53.2359C54.5829 52.9218 55.615 52.1589 56.9164 51.5756C58.2177 50.9473 60.3717 49.3319 61.7179 47.9856C63.827 45.8765 64.4103 44.9342 65.263 42.1071C66.6541 37.6646 67.9554 30.0808 68.0003 26.2665C68.0003 23.3946 67.9554 23.2151 66.7887 22.7663C65.5771 22.2727 60.3717 22.4971 57.5895 23.0804C56.5574 23.3048 56.2881 23.0804 55.3009 21.3752C54.6726 20.3431 53.4162 17.3814 52.5187 14.8236C49.5121 6.16287 47.8518 3.11143 45.4734 1.89983C44.217 1.22671 43.7233 1.27158 38.8769 2.21394C35.2421 2.93193 31.9214 3.24605 27.8379 3.24605C22.2286 3.29092 21.7799 3.20118 16.9783 1.5857C11.9524 -0.0746384 9.84332 -0.343887 8.04835 0.3741ZM17.5617 2.21394C23.7543 4.09866 23.7992 4.09866 29.1841 3.82941C32.1458 3.69479 36.6332 3.1563 39.191 2.66269C43.2297 1.85495 43.9477 1.81007 45.0247 2.34856C47.4928 3.60504 48.839 6.02825 52.0251 14.9133C53.1918 18.0994 54.538 21.2406 54.9868 21.9137C55.974 23.3048 55.7945 23.7087 54.2239 23.7087C52.9226 23.7087 50.0955 25.0998 49.1082 26.2216C48.7044 26.7153 47.8069 28.1512 47.1787 29.4077L46.0119 31.786L37.3512 31.8309C29.8123 31.8309 28.2417 31.9655 24.6967 32.863C22.4978 33.4464 20.5234 33.8054 20.3888 33.6259C20.2541 33.4913 19.5361 31.786 18.8182 29.8565C18.1002 27.9269 16.9783 25.6832 16.3501 24.9203L15.1385 23.4843L11.1895 23.6189C6.38801 23.7536 3.65068 24.3369 1.99034 25.5485L0.688985 26.446V25.1447C0.688985 23.8433 3.87505 9.12457 4.77254 6.20775C5.80464 3.02168 6.70213 1.5857 8.04835 1.00234C10.1126 0.104858 10.7857 0.194603 17.5617 2.21394ZM66.6989 23.2599C67.7759 23.8433 67.8208 25.6832 66.8784 32.1899C65.7117 39.9531 63.6026 46.5945 62.3013 46.5945C62.0769 46.5945 61.1794 45.1137 60.237 43.3187C58.7562 40.4468 58.5767 39.7288 58.5767 36.9017C58.5767 33.8054 58.5318 33.6708 57.3651 33.1771C55.2111 32.3694 52.1597 31.786 49.5121 31.786C48.0761 31.786 46.9094 31.6963 46.9094 31.5617C46.9094 31.1578 48.7044 27.5679 49.2877 26.805C50.4545 25.2793 52.5636 24.4267 56.9164 23.7087C62.3461 22.7663 65.4873 22.6317 66.6989 23.2599ZM15.9013 25.2344C16.4847 25.8626 18.3245 29.9462 19.9849 34.3439L23.0363 42.3315L21.017 46.3702C19.8951 48.569 18.9079 50.4986 18.8182 50.5883C18.4143 51.0371 16.7988 49.0177 15.3628 46.2355C13.7474 43.1841 12.7601 39.7737 11.01 31.2027C10.4267 28.5551 9.79845 26.4011 9.61895 26.4011C9.39458 26.4011 8.3176 27.2986 7.28549 28.4205C4.99691 30.7988 3.47118 31.0232 1.81084 29.318C0.374865 27.9269 0.419739 27.0743 1.85571 26.087C3.65068 24.9203 6.79188 24.292 11.01 24.2023C14.5551 24.1126 14.959 24.2023 15.9013 25.2344ZM11.6383 36.4978C13.5679 45.2034 15.677 49.3767 19.581 52.3384C20.7926 53.2359 21.6901 53.9988 21.6004 54.0885C21.5555 54.1783 20.5683 53.909 19.4464 53.5052C16.5745 52.5628 14.1512 50.3191 11.728 46.415C9.21508 42.4212 5.31103 34.299 4.90716 32.3694C4.68279 31.1129 4.81741 30.8886 5.98414 30.2603C6.747 29.8565 7.82398 28.9141 8.36247 28.1064L9.39458 26.6704L9.97794 29.0936C10.2921 30.4398 11.01 33.7605 11.6383 36.4978ZM55.6599 33.0874C57.3651 33.6708 57.41 33.7156 56.3779 34.0746C54.1342 34.9272 46.685 35.376 34.0305 35.376C26.3122 35.376 20.8824 35.1965 20.8824 34.9721C20.8824 34.4785 24.2031 33.3118 27.2096 32.7284C30.3508 32.0553 53.5059 32.4143 55.6599 33.0874ZM58.128 36.9017C58.128 38.7864 57.9485 39.3698 57.3651 39.639C55.6599 40.2673 45.6978 40.8058 34.6588 40.8955L23.0363 40.9853L22.1837 38.7415C21.735 37.4851 21.3311 36.3632 21.3311 36.2286C21.3311 36.0491 28.5559 35.8247 37.3961 35.6901C46.1914 35.5555 54.1342 35.2862 54.9868 35.017C57.9933 34.1644 58.128 34.2093 58.128 36.9017ZM58.3523 41.2096C58.6216 41.434 59.5191 42.9148 60.3717 44.4854L61.8974 47.3574L60.596 48.569C56.4676 52.2487 50.8583 53.55 36.0947 54.3129C26.4468 54.8065 25.28 54.7616 23.53 54.0885C22.453 53.6847 20.9721 52.8769 20.299 52.3384L19.0425 51.3063L21.2862 46.9984L23.5748 42.6905L25.6839 43.0495C28.5559 43.4982 36.8576 43.4982 43.7682 43.0495C50.3647 42.6007 57.3651 41.2545 56.0637 40.6711C55.4804 40.4019 55.6599 40.4019 56.5574 40.5814C57.2753 40.716 58.0831 40.9853 58.3523 41.2096ZM52.2943 41.4789C47.6274 42.6456 32.1458 43.3636 26.716 42.6905L24.2479 42.3764L26.2673 42.0622C27.3891 41.8827 30.9342 41.7032 34.1203 41.6135C37.3512 41.5686 42.1976 41.3891 44.8901 41.2096C47.6274 41.075 50.9481 40.8955 52.2943 40.8955L54.7624 40.8506L52.2943 41.4789ZM13.7025 56.2425C11.4139 60.5504 10.8306 60.6402 12.6255 56.3771C13.2538 54.8514 14.0166 53.0564 14.241 52.4731C14.5551 51.6204 14.7346 51.4858 15.1834 51.9346C15.5872 52.3384 15.2282 53.3257 13.7025 56.2425ZM55.5253 59.2042C56.5574 62.9287 57.051 65.3519 56.7817 65.6212C56.333 66.0699 56.3779 66.1597 53.5508 58.5311C52.1148 54.627 51.8904 53.5949 52.3841 53.2808C52.6982 53.0564 53.1469 52.9667 53.4162 53.0115C53.6405 53.1013 54.5829 55.8835 55.5253 59.2042ZM42.8259 56.5566C42.8707 56.781 42.6912 56.9156 42.422 56.9156C42.1976 56.9156 41.9732 56.3771 42.0181 55.6591C42.0181 54.5821 42.063 54.5373 42.422 55.345C42.6464 55.8386 42.8259 56.3771 42.8259 56.5566ZM24.0236 55.3899C24.0236 55.5245 23.3953 58.9798 22.6325 63.0185C21.735 67.5059 21.017 70.3779 20.7029 70.3779C20.299 70.3779 20.4336 68.3136 21.1516 62.839C21.6901 58.7106 22.1389 55.3001 22.1837 55.2104C22.2735 54.986 24.0236 55.1206 24.0236 55.3899Z" fill="black"/>
</svg>
