<svg width="50" height="50" viewBox="0 0 50 50" fill="none" xmlns="http://www.w3.org/2000/svg">
<rect opacity="0.5" width="50" height="50" rx="10" fill="#01021E"/>
<path d="M20.7327 33.0685C19.0759 33.0685 17.4191 33.0685 15.7624 33.0685C13.557 33.066 12.0061 31.5279 12.0029 29.3326C11.999 26.4733 11.999 23.6142 12.0029 20.7553C12.0053 18.5568 13.5527 17.0069 15.7507 17.0031C19.0749 16.999 22.3991 16.999 25.7234 17.0031C27.9306 17.0053 29.4731 18.5361 29.4796 20.7431C29.488 23.602 29.488 26.461 29.4796 29.3201C29.475 31.5453 27.935 33.0668 25.7038 33.0682C24.0465 33.0693 22.3894 33.0694 20.7327 33.0685Z" fill="white"/>
<path d="M38.4258 25.0757C38.4258 25.9507 38.4298 26.8259 38.4258 27.7009C38.4162 29.4059 36.7636 30.4576 35.2078 29.7512C34.1216 29.2577 33.0395 28.7556 31.9486 28.2721C31.5008 28.0736 31.3069 27.7509 31.3091 27.2704C31.3162 25.7872 31.3162 24.3039 31.3091 22.8206C31.3069 22.338 31.5108 22.0215 31.9554 21.8227C33.0541 21.3317 34.1428 20.8167 35.2394 20.3213C36.7585 19.6337 38.4124 20.6894 38.4252 22.3545C38.4315 23.2616 38.4258 24.1686 38.4258 25.0757Z" fill="white"/>
</svg>
