<svg width="50" height="50" viewBox="0 0 50 50" fill="none" xmlns="http://www.w3.org/2000/svg">
<rect opacity="0.5" width="50" height="50" rx="10" fill="#01021E"/>
<path d="M26.8477 33.3208C26.5684 33.437 26.303 33.4188 26.0433 33.419C22.8588 33.4219 19.674 33.4292 16.4892 33.419C14.4692 33.4117 13.0126 31.95 13.0064 29.9344C12.9979 27.1843 12.9979 24.4342 13.0064 21.6839C13.0092 20.2123 13.8511 18.9555 15.1423 18.4517C15.2985 18.3913 15.3874 18.3996 15.4968 18.5411C19.2511 23.4277 23.0081 28.3123 26.768 33.1948C26.7899 33.2245 26.8083 33.2591 26.8477 33.3208Z" fill="white"/>
<path d="M29.538 25.8301C29.538 27.1649 29.538 28.4998 29.538 29.8349C29.538 30.1894 29.527 30.5465 29.4205 30.8851C29.364 31.0651 29.3999 31.1825 29.5088 31.3232C31.0043 33.2578 32.497 35.1944 33.9869 37.1331C34.1575 37.3542 34.3026 37.5808 34.2713 37.8749C34.2542 38.047 34.1841 38.2095 34.0708 38.3402C33.9574 38.4708 33.8063 38.563 33.6384 38.6042C33.3089 38.6896 32.9734 38.5555 32.7382 38.245C32.2928 37.6574 31.8507 37.0672 31.4012 36.4827C25.7265 29.1081 20.0512 21.7337 14.3753 14.3593C14.0682 13.9603 14.1177 13.4737 14.4917 13.1797C14.8658 12.8856 15.3682 12.9546 15.6928 13.3714C16.8201 14.8243 17.9498 16.2756 19.0529 17.7473C19.3066 18.0859 19.5595 18.2279 19.9932 18.2222C22.0051 18.1961 24.0175 18.2055 26.0297 18.2117C27.7787 18.2172 29.1231 19.2925 29.4679 20.9509C29.5281 21.2374 29.5367 21.5328 29.5367 21.8261C29.5376 23.1607 29.538 24.4954 29.538 25.8301Z" fill="white"/>
<path d="M37.9977 25.8334C37.9977 26.6726 38.0024 27.5121 37.9977 28.3514C37.9873 29.9343 36.4421 30.9423 34.996 30.3015C33.9367 29.8327 32.8888 29.3378 31.8325 28.8598C31.4455 28.6855 31.2671 28.3941 31.2676 27.9773C31.2691 26.5414 31.2691 25.1053 31.2676 23.6691C31.2676 23.2508 31.4499 22.9627 31.8349 22.7882C32.8895 22.3081 33.9367 21.8109 34.9944 21.3379C36.4354 20.6934 37.9862 21.7025 37.9966 23.2849C38.0026 24.1343 37.9977 24.9837 37.9977 25.8334Z" fill="white"/>
</svg>
