<svg width="14" height="9" viewBox="0 0 14 9" fill="none" xmlns="http://www.w3.org/2000/svg">
<path d="M4.50574 7.73025H4.50602C5.34119 7.73071 6.1765 7.73066 7.01195 7.73011H7.01198C7.4583 7.72984 7.80223 7.57955 8.03321 7.35057C8.26387 7.12192 8.41523 6.78187 8.41615 6.33919L8.41615 6.33877C8.42035 4.89813 8.42035 3.45753 8.41615 2.01697M4.50574 7.73025L1.99459 0.62975C3.67023 0.627648 5.34588 0.627649 7.02153 0.62975L7.02166 0.62975C7.45977 0.630182 7.80149 0.780281 8.03266 1.01023C8.26367 1.24002 8.41486 1.5799 8.41615 2.01697M4.50574 7.73025H4.50085H4.49595H4.49106H4.48616H4.48127H4.47637H4.47148H4.46659H4.46169H4.4568H4.4519H4.44701H4.44211H4.43722H4.43232H4.42743H4.42253H4.41764H4.41274H4.40785H4.40295H4.39806H4.39316H4.38827H4.38337H4.37848H4.37358H4.36869H4.36379H4.3589H4.35401H4.34911H4.34422H4.33932H4.33443H4.32953H4.32464H4.31974H4.31485H4.30995H4.30506H4.30016H4.29527H4.29037H4.28548H4.28058H4.27569H4.27079H4.2659H4.261H4.25611H4.25121H4.24632H4.24143H4.23653H4.23164H4.22674H4.22185H4.21695H4.21206H4.20716H4.20227H4.19737H4.19248H4.18758H4.18269H4.17779H4.1729H4.168H4.16311H4.15821H4.15332H4.14842H4.14353H4.13863H4.13374H4.12885H4.12395H4.11906H4.11416H4.10927H4.10437H4.09948H4.09458H4.08969H4.08479H4.0799H4.075H4.07011H4.06521H4.06032H4.05542H4.05053H4.04563H4.04074H4.03584H4.03095H4.02605H4.02116H4.01627H4.01137H4.00648H4.00158H3.99669H3.99179H3.9869H3.982H3.97711H3.97221H3.96732H3.96242H3.95753H3.95263H3.94774H3.94284H3.93795H3.93305H3.92816H3.92326H3.91837H3.91348H3.90858H3.90369H3.89879H3.8939H3.889H3.88411H3.87921H3.87432H3.86942H3.86453H3.85963H3.85474H3.84984H3.84495H3.84005H3.83516H3.83026H3.82537H3.82047H3.81558H3.81068H3.80579H3.80089H3.796H3.79111H3.78621H3.78132H3.77642H3.77153H3.76663H3.76174H3.75684H3.75195H3.74705H3.74216H3.73726H3.73237H3.72747H3.72258H3.71768H3.71279H3.70789H3.703H3.6981H3.69321H3.68831H3.68342H3.67853H3.67363H3.66874H3.66384H3.65895H3.65405H3.64916H3.64426H3.63937H3.63447H3.62958H3.62468H3.61979H3.61489H3.61H3.6051H3.60021H3.59531H3.59042H3.58552H3.58063H3.57573H3.57084H3.56595H3.56105H3.55616H3.55126H3.54637H3.54147H3.53658H3.53168H3.52679H3.52189H3.517H3.5121H3.50721H3.50231H3.49742H3.49252H3.48763H3.48273H3.47784H3.47294H3.46805H3.46316H3.45826H3.45337H3.44847H3.44358H3.43868H3.43379H3.42889H3.424H3.4191H3.41421H3.40931H3.40442H3.39952H3.39463H3.38973H3.38484H3.37994H3.37505H3.37015H3.36526H3.36036H3.35547H3.35057H3.34568H3.34079H3.33589H3.331H3.3261H3.32121H3.31631H3.31142H3.30652H3.30163H3.29673H3.29184H3.28694H3.28205H3.27715H3.27226H3.26736H3.26247H3.25757H3.25268H3.24778H3.24289H3.23799H3.2331H3.22821H3.22331H3.21842H3.21352H3.20863H3.20373H3.19884H3.19394H3.18905H3.18415H3.17926H3.17436H3.16947H3.16457H3.15968H3.15478H3.14989H3.14499H3.1401H3.1352H3.13031H3.12542H3.12052H3.11563H3.11073H3.10584H3.10094H3.09605H3.09115H3.08626H3.08136H3.07647H3.07157H3.06668H3.06178H3.05689H3.05199H3.0471H3.0422H3.03731H3.03241H3.02752H3.02262H3.01773H3.01284H3.00794H3.00305H2.99815H2.99326H2.98836H2.98347H2.97857H2.97368H2.96878H2.96389H2.95899H2.9541H2.9492H2.94431H2.93941H2.93452H2.92962H2.92473H2.91983H2.91494H2.91004H2.90515H2.90025H2.89536H2.89047H2.88557H2.88068H2.87578H2.87089H2.86599H2.8611H2.8562H2.85131H2.84641H2.84152H2.83662H2.83173H2.82683H2.82194H2.81704H2.81215H2.80725H2.80236H2.79746H2.79257H2.78767H2.78278H2.77789H2.77299H2.7681H2.7632H2.75831H2.75341H2.74852H2.74362H2.73873H2.73383H2.72894H2.72404H2.71915H2.71425H2.70936H2.70446H2.69957H2.69467H2.68978H2.68488H2.67999H2.6751H2.6702H2.66531H2.66041H2.65552H2.65062H2.64573H2.64083H2.63594H2.63104H2.62615H2.62125H2.61636H2.61146H2.60657H2.60167H2.59678H2.59188H2.58699H2.58209H2.5772H2.5723H2.56741H2.56252H2.55762H2.55273H2.54783H2.54294H2.53804H2.53315H2.52825H2.52336H2.51846H2.51357H2.50867H2.50378H2.49888H2.49399H2.48909H2.4842H2.4793H2.47441H2.46951H2.46462H2.45972H2.45483H2.44993H2.44504H2.44015H2.43525H2.43036H2.42546H2.42057H2.41567H2.41078H2.40588H2.40099H2.39609H2.3912H2.3863H2.38141H2.37651H2.37162H2.36672H2.36183H2.35693H2.35204H2.34714H2.34225H2.33736H2.33246H2.32757H2.32267H2.31778H2.31288H2.30799H2.30309H2.2982H2.2933H2.28841H2.28351H2.27862H2.27372H2.26883H2.26393H2.25904H2.25414H2.24925H2.24435H2.23946H2.23456H2.22967H2.22478H2.21988H2.21499H2.21009H2.2052H2.2003H2.19541H2.19051H2.18562H2.18072H2.17583H2.17093H2.16604H2.16114H2.15625H2.15135H2.14646H2.14156H2.13667H2.13177H2.12688H2.12198H2.11709H2.1122H2.1073H2.10241H2.09751H2.09262H2.08772H2.08283H2.07793H2.07304H2.06814H2.06325H2.05835H2.05346H2.04856H2.04367H2.03877H2.03388H2.02898H2.02409H2.01919H2.0143H2.0094H2.00451L2.00017 7.73025L1.99962 8.23025M4.50574 7.73025L7.02215 0.12975C8.1351 0.130847 8.91285 0.902702 8.91615 2.01552M8.41615 2.01697L8.91615 2.01552M8.41615 2.01697L8.91615 2.01552M8.91615 2.01552C8.92035 3.45704 8.92035 4.89861 8.91615 6.34023C8.91381 7.46223 8.1373 8.22943 7.01228 8.23011C6.17663 8.23066 5.34112 8.23071 4.50574 8.23025H1.99962M1.99962 8.23025V7.73025H1.99978C1.56294 7.72967 1.22012 7.57903 0.987751 7.34826C0.755579 7.11768 0.604639 6.77835 0.603978 6.34587L0.103979 6.34654M1.99962 8.23025C0.887623 8.22901 0.105624 7.45346 0.103979 6.34654M0.103979 6.34654C0.102059 4.90483 0.102059 3.46321 0.103979 2.02169L0.603978 6.3458M0.103979 6.34654L0.603978 6.3458M0.603978 6.3458C0.602059 4.90456 0.602059 3.46341 0.603978 2.02235L0.603978 2.02224M0.603978 6.3458L0.603978 2.02224M0.603978 2.02224C0.604461 1.58825 0.755394 1.24644 0.987483 1.01405M0.603978 2.02224L0.987483 1.01405M0.987483 1.01405C1.2195 0.781736 1.5608 0.630556 1.99435 0.62975L0.987483 1.01405Z" stroke="#fff"/>
<path d="M12.0268 2.2585L12.0265 2.25865C11.7892 2.36584 11.543 2.47936 11.2947 2.59386C10.985 2.73668 10.672 2.88102 10.3688 3.0165L12.0268 2.2585ZM12.0268 2.2585C12.4643 2.06046 12.9232 2.35518 12.927 2.83185L12.0268 2.2585ZM12.9277 4.64438C12.9275 4.49692 12.9272 4.34901 12.9272 4.20026C12.9272 4.05028 12.9275 3.90137 12.9279 3.75305L12.9277 4.64438ZM12.9277 4.64438C12.9282 4.93748 12.9286 5.22881 12.9273 5.52137M12.9277 4.64438L12.9273 5.52137M12.9273 5.52137C12.9244 6.01566 12.4686 6.31002 12.0115 6.10256L12.9273 5.52137ZM11.4952 5.86692C11.668 5.94598 11.8402 6.02473 12.0114 6.10251L11.4952 5.86692ZM11.4952 5.86692C11.1203 5.69543 10.7422 5.52249 10.3639 5.35486L11.4952 5.86692ZM10.3389 3.0608C10.3389 3.06082 10.3389 3.06084 10.3389 3.06087L10.3389 3.0608ZM10.3389 3.0608C10.3388 3.04755 10.3395 3.03786 10.3403 3.03118M10.3389 3.0608L10.3403 3.03118M10.3403 3.03118C10.3464 3.02747 10.3556 3.02243 10.3688 3.01653L10.3403 3.03118ZM10.3639 5.35485C10.3535 5.35025 10.3459 5.34626 10.3406 5.34316C10.3397 5.33567 10.3388 5.32461 10.3389 5.30929L10.3639 5.35485ZM10.3389 5.30917C10.3424 4.55976 10.3424 3.81034 10.3389 3.06093L10.3389 5.30917Z" stroke="#fff"/>
</svg>
