<svg width="50" height="50" viewBox="0 0 50 50" fill="none" xmlns="http://www.w3.org/2000/svg">
<rect opacity="0.5" width="50" height="50" rx="10" fill="#01021E"/>
<path d="M37.9996 15.4091C37.9996 13.5263 36.4733 12 34.5905 12H30.0451C29.4174 12 28.9087 12.5088 28.9087 13.1364C28.9087 13.764 29.4174 14.2727 30.0451 14.2727H34.5905C35.2181 14.2727 35.7269 14.7815 35.7269 15.4091V19.9545C35.7269 20.5821 36.2356 21.0909 36.8632 21.0909C37.4908 21.0909 37.9996 20.5821 37.9996 19.9545V15.4091Z" fill="white"/>
<path d="M37.9996 29.0455C37.9996 28.4179 37.4908 27.9091 36.8632 27.9091C36.2356 27.9091 35.7269 28.4179 35.7269 29.0455V33.5909C35.7269 34.2185 35.2181 34.7273 34.5905 34.7273H30.0451C29.4174 34.7273 28.9087 35.236 28.9087 35.8637C28.9087 36.4913 29.4174 37 30.0451 37H34.5905C36.4733 37 37.9996 35.4738 37.9996 33.5909V29.0455Z" fill="white"/>
<path d="M16.4091 34.7273H20.9545C21.5821 34.7273 22.0909 35.236 22.0909 35.8637C22.0909 36.4913 21.5821 37 20.9545 37H16.4091C14.5263 37 13 35.4738 13 33.5909V29.0455C13 28.4179 13.5088 27.9091 14.1364 27.9091C14.764 27.9091 15.2727 28.4179 15.2727 29.0455V33.5909C15.2727 34.2185 15.7815 34.7273 16.4091 34.7273Z" fill="white"/>
<path d="M13 19.9545C13 20.5821 13.5088 21.0909 14.1364 21.0909C14.764 21.0909 15.2727 20.5821 15.2727 19.9545V15.4091C15.2727 14.7815 15.7815 14.2727 16.4091 14.2727H20.9545C21.5821 14.2727 22.0909 13.764 22.0909 13.1364C22.0909 12.5088 21.5821 12 20.9545 12H16.4091C14.5263 12 13 13.5263 13 15.4091V19.9545Z" fill="white"/>
</svg>
